<svg xmlns="http://www.w3.org/2000/svg" viewBox="0 0 500 500"><g id="freepik--background-complete--inject-62"><g><path d="M361.28,380.01c1.74,5.27,.72,11.2-1.93,16.09-2.65,4.88-6.8,8.81-11.33,12.01-8.77,6.2-20.86,8.85-31.57,9.65-.13-11.93,8.71-22.59,13.53-27.71,7.62-8.1,26.32-18.1,31.3-10.04" style="fill:#f5f5f5;"></path><path d="M310.25,437.3c3.55-5.09,10.16-7.62,16.32-6.91,6.16,.71,11.77,4.38,15.54,9.31,1.74,2.28,3.18,5.14,2.51,7.93-.62,2.61-3.03,4.53-5.63,5.18-2.6,.65-5.36,.23-7.93-.51-8.83-2.56-16.91-6.66-20.8-14.99" style="fill:#f5f5f5;"></path><path d="M284.74,445.8c-.07-.13,2.17-1.63,6.03-3.75,1.93-1.06,4.42-2.07,7.23-2.82,2.81-.73,5.88-1.61,9.25-2.04,6.72-.94,12.97,.03,17.09,1.65,2.08,.79,3.63,1.71,4.67,2.37,1.01,.71,1.53,1.15,1.49,1.22-.12,.18-2.34-1.41-6.44-2.78-4.08-1.37-10.11-2.17-16.65-1.26-3.25,.42-6.33,1.25-9.12,1.92-2.79,.69-5.18,1.56-7.14,2.51-3.91,1.9-6.33,3.16-6.41,2.99Z" style="fill:#e0e0e0;"></path><path d="M347.71,388.89c.06,.06-.81,1-2.43,2.65-1.62,1.65-4,4-6.96,6.88-5.92,5.76-14.19,13.63-23.54,22.09-9.35,8.46-18.03,15.89-24.42,21.13-3.2,2.62-5.81,4.71-7.64,6.12-1.83,1.41-2.87,2.16-2.92,2.1-.05-.06,.88-.94,2.62-2.46,1.91-1.65,4.39-3.81,7.39-6.41,6.25-5.4,14.82-12.91,24.16-21.37,9.2-8.45,17.52-16.09,23.76-21.82,2.93-2.68,5.35-4.9,7.22-6.6,1.72-1.54,2.7-2.37,2.76-2.31Z" style="fill:#e0e0e0;"></path><path d="M298.16,429.9c6.81-11.17,7.74-25.71,2.42-37.65-1.36-3.04-3.74-6.3-7.07-6.2-3.33,.1-5.52,3.52-6.61,6.68-4.54,13.12-.15,28.84,10.53,37.7" style="fill:#f5f5f5;"></path><path d="M296.02,400.88c.08-.02,.33,.6,.72,1.75,.4,1.15,.88,2.84,1.4,4.94,.95,4.21,2.12,10.25,1.17,16.94-.48,3.33-1.51,6.41-2.83,9-1.31,2.61-2.99,4.66-4.45,6.28-1.53,1.57-2.85,2.74-3.85,3.43-.98,.72-1.55,1.08-1.6,1.02-.15-.19,2.02-1.79,4.82-5.02,1.35-1.65,2.89-3.68,4.09-6.21,1.21-2.52,2.16-5.47,2.63-8.68,.92-6.44-.08-12.38-.81-16.59-.81-4.22-1.48-6.82-1.29-6.87Z" style="fill:#e0e0e0;"></path></g><g><path d="M51.76,381.68c3.86-.29,7.7,1.4,10.55,4.01,2.86,2.61,4.81,6.08,6.22,9.68,2.72,6.98,2.48,15.59,1.22,22.97-8.09-1.92-13.81-9.69-16.46-13.81-4.19-6.52-7.82-20.84-1.53-22.85" style="fill:#f5f5f5;"></path><path d="M81.92,425.82c-2.85-3.25-3.45-8.15-1.93-12.2,1.52-4.05,4.94-7.23,8.91-8.94,1.83-.79,4.01-1.28,5.79-.36,1.66,.86,2.55,2.81,2.56,4.68,0,1.87-.74,3.66-1.68,5.28-3.22,5.54-7.35,10.32-13.64,11.55" style="fill:#f5f5f5;"></path><path d="M83.37,444.5c-.1,.02-.74-1.74-1.52-4.71-.39-1.48-.66-3.34-.69-5.37-.02-2.02-.1-4.25,.18-6.6,.5-4.7,2.2-8.76,3.99-11.28,.89-1.27,1.76-2.17,2.39-2.76,.65-.57,1.04-.84,1.07-.8,.11,.11-1.35,1.34-2.96,3.89-1.61,2.53-3.17,6.47-3.65,11.05-.27,2.27-.22,4.49-.24,6.49,0,2,.19,3.77,.5,5.25,.63,2.96,1.07,4.81,.94,4.84Z" style="fill:#e0e0e0;"></path><path d="M55.48,392.35c.05-.03,.54,.72,1.38,2.09,.84,1.37,2.03,3.37,3.48,5.86,2.9,4.97,6.83,11.89,10.98,19.63,4.15,7.75,7.71,14.87,10.18,20.07,1.23,2.6,2.21,4.72,2.85,6.19,.65,1.48,.98,2.3,.93,2.33-.05,.02-.48-.76-1.22-2.19-.8-1.57-1.84-3.61-3.09-6.07-2.6-5.13-6.24-12.2-10.39-19.93-4.17-7.64-7.94-14.56-10.76-19.74-1.32-2.43-2.41-4.44-3.25-5.99-.75-1.42-1.15-2.22-1.1-2.25Z" style="fill:#e0e0e0;"></path><path d="M74.88,432.75c-6.41-6.48-16.08-9.56-25.06-7.96-2.29,.41-4.89,1.47-5.38,3.74-.49,2.27,1.45,4.32,3.4,5.59,8.11,5.28,19.48,4.95,27.27-.78" style="fill:#f5f5f5;"></path><path d="M54.9,429.32c0-.06,.46-.12,1.3-.19,.84-.08,2.07-.12,3.58-.12,3,.07,7.29,.29,11.65,2.06,2.17,.88,4.08,2.1,5.61,3.43,1.55,1.33,2.65,2.8,3.5,4.07,.8,1.3,1.38,2.39,1.67,3.18,.32,.79,.47,1.23,.42,1.25-.15,.07-.87-1.66-2.58-4.1-.89-1.19-2-2.57-3.51-3.81-1.5-1.24-3.34-2.38-5.43-3.24-4.2-1.7-8.39-2.02-11.36-2.24-2.99-.16-4.86-.15-4.86-.28Z" style="fill:#e0e0e0;"></path></g><g><circle cx="376.25" cy="260.38" r="19.4" transform="translate(-73.92 342.31) rotate(-45)" style="fill:#ebebeb;"></circle><path d="M378.35,260.97c2-.81,3.44-2.85,3.48-5.27,.05-3.17-2.32-5.77-5.29-5.82-2.97-.05-5.42,2.48-5.47,5.65-.04,2.44,1.37,4.53,3.37,5.39-8.29,1.16-8.02,10.16-8.02,10.16l19.57,.31s.55-9.09-7.64-10.42Z" style="fill:#fff;"></path></g><g><circle cx="426.59" cy="79.12" r="24.22" transform="translate(-7.18 69.89) rotate(-9.29)" style="fill:#f5f5f5;"></circle><path d="M429.22,79.85c2.5-1.01,4.29-3.56,4.34-6.58,.06-3.95-2.9-7.21-6.61-7.27-3.71-.06-6.76,3.1-6.82,7.06-.05,3.05,1.7,5.66,4.2,6.73-10.35,1.44-10.01,12.68-10.01,12.68l24.43,.38s.68-11.35-9.54-13.01Z" style="fill:#fff;"></path></g><g><circle cx="320.97" cy="278.52" r="10.15" style="fill:#f5f5f5;"></circle><path d="M322.07,278.83c1.05-.43,1.8-1.49,1.82-2.76,.02-1.66-1.21-3.02-2.77-3.05-1.55-.02-2.83,1.3-2.86,2.96-.02,1.28,.71,2.37,1.76,2.82-4.34,.6-4.19,5.31-4.19,5.31l10.24,.16s.29-4.76-4-5.45Z" style="fill:#fff;"></path></g><g><path d="M423.26,404.99c0,7.36-5.97,13.33-13.33,13.33s-13.33-5.97-13.33-13.33,5.97-13.33,13.33-13.33,13.33,5.97,13.33,13.33Z" style="fill:#ebebeb;"></path><path d="M411.37,405.39c1.37-.56,2.36-1.96,2.39-3.62,.03-2.18-1.6-3.97-3.64-4-2.04-.03-3.72,1.71-3.76,3.88-.03,1.68,.94,3.12,2.31,3.71-5.7,.79-5.51,6.98-5.51,6.98l13.45,.21s.38-6.25-5.25-7.16Z" style="fill:#fff;"></path></g><g><circle cx="455.83" cy="185.9" r="11.52" transform="translate(2.06 376.77) rotate(-45)" style="fill:#ebebeb;"></circle><path d="M457.08,186.25c1.19-.48,2.04-1.69,2.06-3.13,.03-1.88-1.38-3.43-3.14-3.46-1.76-.03-3.22,1.48-3.25,3.36-.02,1.45,.81,2.69,2,3.2-4.92,.69-4.76,6.03-4.76,6.03l11.62,.18s.33-5.4-4.54-6.19Z" style="fill:#fff;"></path></g><g><circle cx="467.65" cy="302.69" r="14.95" transform="translate(94.27 716.1) rotate(-80.83)" style="fill:#f5f5f5;"></circle><path d="M469.28,303.15c1.54-.63,2.65-2.2,2.68-4.06,.04-2.44-1.79-4.45-4.08-4.49-2.29-.04-4.17,1.91-4.21,4.36-.03,1.88,1.05,3.49,2.6,4.16-6.39,.89-6.18,7.83-6.18,7.83l15.08,.24s.42-7.01-5.89-8.03Z" style="fill:#fff;"></path></g><g><circle cx="346.85" cy="103.18" r="14.95" transform="translate(-2.16 198.82) rotate(-31.89)" style="fill:#ebebeb;"></circle><path d="M348.48,103.64c1.54-.63,2.65-2.2,2.68-4.06,.04-2.44-1.79-4.45-4.08-4.49-2.29-.04-4.17,1.91-4.21,4.36-.03,1.88,1.05,3.49,2.6,4.16-6.39,.89-6.18,7.83-6.18,7.83l15.08,.24s.42-7-5.89-8.03Z" style="fill:#fff;"></path></g><g><circle cx="57.35" cy="74.41" r="14.95" style="fill:#ebebeb;"></circle><path d="M58.97,74.87c1.54-.63,2.65-2.2,2.68-4.06,.04-2.44-1.79-4.45-4.08-4.49-2.29-.04-4.17,1.91-4.21,4.36-.03,1.88,1.05,3.49,2.6,4.16-6.39,.89-6.18,7.83-6.18,7.83l15.08,.24s.42-7.01-5.89-8.03Z" style="fill:#fff;"></path></g></g><g id="freepik--Floor--inject-62"><path d="M467.81,467.65c0,.14-97.52,.26-217.8,.26s-217.82-.12-217.82-.26,97.5-.26,217.82-.26,217.8,.12,217.8,.26Z" style="fill:#263238;"></path></g><g id="freepik--Character_4--inject-62"><g><g><circle cx="444.38" cy="246.82" r="26.55" transform="translate(-44.45 107.4) rotate(-13.13)" style="fill:#ebebeb;"></circle><path d="M458.26,260.62c-3.53-1.43-10.68-1.85-10.68-1.85l-8.3-.47s-9.81,1.44-11.91,3.24c-.71,.61-1.83,1.64-2.98,2.74,4.87,5.57,12.02,9.09,20,9.09s14.45-3.2,19.29-8.31c-1.92-2.01-3.96-3.86-5.4-4.44Z" style="fill:#8988E3;"></path><g><path d="M434.33,235.9l21.11,.05c3.06,5.89,4.44,14.59,4.23,21.14-8.7,2.15-19.8,.43-28.66-.9-.16-7.1,1.37-13.44,3.32-20.29Z" style="fill:#263238;"></path><g><path d="M454.97,235.14c-2.12-3.27-5.22-5.35-9.08-5.85-2.18-.28-3.13,.08-4.75,.33-1.62,.25-3.13,.94-4.22,2.16-1.29,1.46-2.42,3.12-2.85,5.02-.44,1.95-.87,3.91-.94,5.91-.07,2,.25,4.05,1.23,5.79l4.95,1.43c2.77,.4,5.59,.81,8.37,.47,2.78-.33,5.58-1.5,7.3-3.72,2.39-3.08,2.12-8.29,0-11.55Z" style="fill:#263238;"></path><path d="M434.93,238.3c.37-3.13,3.51-7.09,7.38-6.68h1.74l6.29,3.33c.95,.15,1.62,1,1.54,1.96l-2.23,22.05-6.22,5.65-4.37-5.99,.24-3.77s-4.35-.92-4.89-6.19c-.27-2.62,.1-6.88,.51-10.36Z" style="fill:#ffbf9d;"></path><path d="M442.29,248.31c0-.28-.13-.53-.3-.72-.35-.37-.91-.47-1.35-.23-.44,.24-.75,.8-.73,1.35h0c.2,.34,.53,.6,.92,.68,.06,.01,.12,.02,.18,.03,.3,.03,.61-.04,.86-.24,.25-.19,.43-.53,.42-.87Z" style="fill:#ff9a6c;"></path><path d="M435.76,242.85c-.03,.35,.24,.67,.61,.71,.37,.04,.69-.21,.73-.57,.03-.35-.24-.67-.61-.71-.37-.04-.69,.21-.73,.57Z" style="fill:#263238;"></path><path d="M435.92,240.17c.08,.09,.61-.26,1.33-.21,.72,.03,1.23,.43,1.32,.35,.04-.04-.04-.2-.26-.38-.22-.18-.6-.36-1.05-.39-.45-.02-.84,.12-1.07,.28-.23,.16-.32,.31-.28,.35Z" style="fill:#263238;"></path><path d="M439.91,246.31s-.44-.14-1.16-.28c-.18-.03-.36-.08-.38-.2-.04-.14,.05-.33,.15-.54,.2-.44,.41-.89,.62-1.37,.87-1.96,1.51-3.57,1.43-3.6-.08-.03-.85,1.52-1.72,3.48-.21,.48-.41,.94-.6,1.38-.08,.21-.21,.44-.14,.72,.04,.14,.17,.25,.29,.29,.12,.04,.22,.05,.31,.06,.73,.08,1.18,.11,1.19,.07Z" style="fill:#263238;"></path><path d="M439.3,254.84s3.51,.42,7.12-1.48c0,0-1.9,3.8-7.12,3.02v-1.54Z" style="fill:#ff9a6c;"></path><path d="M442.01,246.92c-.12-.01-.16,.77-.86,1.29-.7,.52-1.53,.39-1.54,.5-.01,.05,.18,.16,.53,.19,.35,.03,.86-.05,1.29-.37,.43-.32,.63-.76,.67-1.08,.05-.33-.03-.52-.08-.52Z" style="fill:#263238;"></path><path d="M436.44,237.68c.11,.18,.67,.1,1.31,.19,.65,.07,1.17,.29,1.32,.14,.07-.07,0-.25-.21-.44-.21-.19-.58-.37-1.03-.43-.44-.05-.85,.03-1.1,.17-.25,.13-.35,.29-.3,.38Z" style="fill:#263238;"></path><path d="M443.43,243.34c-.02,.35-.34,.63-.71,.61-.37-.01-.65-.31-.63-.67,.02-.35,.34-.63,.71-.62,.37,.01,.66,.31,.63,.67Z" style="fill:#263238;"></path><path d="M445.67,240.96c-.09,.08-.56-.34-1.28-.41-.72-.08-1.28,.25-1.35,.15-.03-.04,.06-.19,.31-.34,.24-.15,.64-.27,1.09-.23,.45,.04,.81,.24,1.01,.43,.21,.19,.27,.36,.22,.39Z" style="fill:#263238;"></path><path d="M445.49,238.62c-.16,.15-.7-.07-1.36-.14-.67-.09-1.24,0-1.36-.19-.05-.09,.06-.24,.32-.38,.26-.13,.68-.22,1.14-.16,.46,.06,.84,.24,1.06,.43,.22,.19,.28,.37,.21,.44Z" style="fill:#263238;"></path><path d="M450.03,245.55c.02-.39,.52-1.28,.91-1.32,1.04-.1,2.89,.08,2.76,2.69-.18,3.57-3.72,2.66-3.73,2.55,0-.08-.02-2.58,.06-3.92Z" style="fill:#ffbf9d;"></path><path d="M451.02,248.22s.06,.05,.16,.1c.1,.05,.28,.09,.46,.03,.38-.12,.73-.7,.78-1.35,.03-.32-.03-.64-.13-.9-.1-.27-.26-.46-.44-.5-.19-.05-.33,.05-.38,.15-.05,.1-.03,.17-.05,.18-.01,0-.07-.06-.04-.21,.02-.07,.06-.15,.15-.22,.09-.07,.22-.09,.35-.07,.27,.03,.51,.3,.62,.59,.13,.29,.19,.64,.17,1.01-.06,.72-.46,1.37-.98,1.5-.25,.05-.46-.03-.56-.12-.11-.09-.12-.17-.11-.18Z" style="fill:#ff9a6c;"></path><path d="M451.34,244.2l-.46,1.22c-3.48-4.15-10.85-14.65-10.49-14.05,0,0,2.79-.8,5.63,.01,2.84,.81,8.17,2.87,7.7,6.27-.46,3.4-2.38,6.55-2.38,6.55Z" style="fill:#263238;"></path></g></g></g><path d="M417.83,246.82s-.01-.15,0-.43c0-.31,.02-.73,.04-1.27,.01-.28,.02-.59,.03-.93,.03-.34,.1-.71,.15-1.12,.11-.81,.22-1.74,.52-2.76,.45-2.07,1.39-4.52,2.9-7.13,1.52-2.59,3.73-5.31,6.75-7.62,3.01-2.29,6.82-4.24,11.24-5.04,4.38-.77,9.34-.65,14.07,1.13,1.2,.38,2.33,.97,3.5,1.53,1.1,.66,2.26,1.27,3.29,2.11,1.09,.75,2.05,1.68,3.04,2.58,.9,1,1.85,1.97,2.63,3.1,1.6,2.21,2.99,4.68,3.84,7.38,.88,2.69,1.35,5.55,1.39,8.46-.04,2.91-.51,5.77-1.38,8.46-.85,2.71-2.24,5.17-3.84,7.39-.78,1.13-1.73,2.11-2.63,3.1-1,.9-1.95,1.83-3.04,2.58-1.03,.83-2.19,1.44-3.29,2.11-1.16,.56-2.3,1.15-3.5,1.53-4.73,1.78-9.69,1.9-14.07,1.13-4.41-.8-8.23-2.75-11.24-5.04-3.02-2.31-5.23-5.03-6.75-7.62-1.51-2.6-2.45-5.06-2.9-7.13-.29-1.02-.4-1.96-.52-2.76-.05-.4-.12-.77-.15-1.12-.01-.34-.02-.65-.03-.93-.02-.54-.03-.96-.04-1.26,0-.28,0-.43,0-.43s.03,.15,.05,.43c.02,.31,.05,.72,.09,1.26,.02,.28,.04,.59,.06,.93,.04,.34,.11,.71,.17,1.11,.13,.8,.25,1.73,.56,2.73,.47,2.05,1.43,4.46,2.95,7.03,1.53,2.55,3.73,5.21,6.72,7.47,2.98,2.24,6.75,4.14,11.09,4.91,4.32,.74,9.19,.61,13.83-1.16,1.18-.38,2.29-.96,3.43-1.51,1.08-.65,2.22-1.26,3.23-2.07,1.07-.73,2-1.65,2.98-2.54,.88-.98,1.81-1.94,2.58-3.05,1.56-2.17,2.93-4.59,3.76-7.25,.86-2.64,1.32-5.44,1.35-8.3-.04-2.85-.5-5.66-1.36-8.3-.83-2.66-2.19-5.07-3.76-7.24-.76-1.11-1.69-2.07-2.58-3.05-.98-.88-1.91-1.8-2.98-2.54-1.01-.82-2.14-1.42-3.22-2.07-1.14-.55-2.25-1.13-3.43-1.51-4.64-1.76-9.51-1.9-13.82-1.16-4.34,.77-8.11,2.67-11.09,4.91-2.99,2.26-5.19,4.92-6.72,7.47-1.51,2.56-2.48,4.98-2.95,7.03-.31,1.01-.43,1.94-.56,2.74-.06,.4-.13,.77-.17,1.11-.02,.34-.04,.65-.06,.93-.04,.53-.07,.95-.09,1.26-.02,.28-.04,.43-.05,.43Z" style="fill:#263238;"></path></g></g><g id="freepik--Character_3--inject-62"><g><circle cx="410.57" cy="332.51" r="37.76" style="fill:#f5f5f5;"></circle><path d="M441,344.46c-1.31-1.72-3.52-2.08-5.09-3.48-2.11-1.9-2.65-5.28-2.72-8.35s.13-6.3-1.03-9.07c-1.33-3.17-4.49-5.19-7.54-4.82l-3.53,3.94c1.61,2.05,2.53,5.22,2.15,7.94-.38,2.72-2.43,7.9-2.63,10.65-.42,5.98,1.63,10.33,6.39,12.8,1.18,.61,2.48,1.02,3.76,.81,1.28-.21,2.52-1.14,2.94-2.54,2.1,1.2,4.84,1.08,6.62-.67,1.78-1.75,2.22-5.19,.68-7.21Z" style="fill:#263238;"></path><path d="M410.57,370.28c10.24,0,19.51-4.08,26.31-10.69-2.99-3.23-6.34-6.39-8.62-7.31-2.61-1.06-8.39-2.44-11.63-2.84-3-.37-3.57,.21-3.57,.21l-9.83-.55s-14.93,1.32-17.92,3.87c-.91,.77-2.35,2.08-3.93,3.53,6.93,8.42,17.42,13.79,29.18,13.79Z" style="fill:#8988E3;"></path><g><g><path d="M425.83,316.04c-3.2-4.76-7.82-7.75-13.52-8.38-3.22-.35-4.61,.19-6.99,.6-2.38,.41-4.59,1.46-6.15,3.29-1.86,2.18-3.49,4.66-4.06,7.47-.59,2.88-1.19,5.79-1.24,8.73-.05,2.94,.46,5.96,1.96,8.49l7.32,1.99c4.09,.52,8.85,4.65,12.94,4.08,4.09-.56,7.57-5.95,10.04-9.25,3.43-4.59,2.9-12.26-.3-17.01Z" style="fill:#263238;"></path><path d="M419.21,315.37l-9.54-4.87-2.62,.06c-5.83-.52-10.45,5.53-10.93,10.24-.53,5.24-.98,11.66-.5,15.6,.95,7.93,7.52,9.19,7.52,9.19,0,0-.17,1.24-.47,3.84l-.76,.89c1.42,4.15,8.1,4.68,14.21,.66l.23-.29,5.22-32.42c.08-1.44-.95-2.7-2.37-2.91Z" style="fill:#ae7461;"></path><path d="M397.64,326.96c-.04,.53,.38,1.01,.94,1.06,.55,.05,1.04-.34,1.08-.87,.04-.53-.38-1.01-.93-1.06-.56-.05-1.04,.34-1.08,.87Z" style="fill:#263238;"></path><path d="M397.65,323.6c.12,.14,.91-.4,2-.36,1.09,.03,1.86,.62,1.99,.49,.06-.06-.06-.3-.4-.57-.33-.26-.91-.53-1.58-.56-.68-.02-1.26,.21-1.59,.45-.34,.24-.47,.48-.41,.54Z" style="fill:#263238;"></path><path d="M403.81,332.73c0-.06-.66-.2-1.75-.39-.28-.04-.54-.1-.58-.3-.06-.2,.07-.5,.22-.82,.29-.66,.59-1.36,.9-2.08,1.26-2.97,2.18-5.41,2.06-5.46-.12-.05-1.24,2.31-2.49,5.28-.3,.73-.59,1.43-.87,2.1-.12,.31-.31,.66-.19,1.08,.07,.21,.26,.37,.44,.42,.18,.06,.33,.07,.47,.08,1.1,.1,1.78,.13,1.79,.07Z" style="fill:#263238;"></path><path d="M403.13,345.59s5.29,.55,10.66-2.41c0,0-3.02,5.35-10.88,4.31l.22-1.9Z" style="fill:#6f4439;"></path><path d="M398.38,319.84c.17,.27,1.01,.13,1.98,.25,.97,.09,1.77,.41,1.99,.17,.1-.11,0-.38-.32-.66-.32-.28-.89-.55-1.55-.62-.67-.07-1.27,.07-1.64,.28-.38,.21-.52,.44-.45,.57Z" style="fill:#263238;"></path><path d="M409.36,327.83c-.02,.53-.49,.96-1.05,.94-.56-.01-.99-.45-.97-.99,.02-.53,.49-.96,1.05-.94,.56,.01,.99,.45,.97,.99Z" style="fill:#263238;"></path><path d="M412.33,324.55c-.14,.12-.86-.5-1.94-.58-1.08-.09-1.92,.4-2.03,.26-.05-.06,.09-.29,.46-.52,.36-.23,.96-.43,1.64-.37,.68,.06,1.23,.35,1.53,.63,.31,.28,.41,.53,.34,.58Z" style="fill:#263238;"></path><path d="M412.01,321.02c-.23,.23-1.05-.09-2.06-.18-1-.12-1.87,.02-2.05-.25-.08-.13,.08-.37,.47-.57,.38-.2,1.01-.35,1.7-.28,.69,.07,1.27,.34,1.6,.62,.34,.28,.43,.54,.33,.66Z" style="fill:#263238;"></path><path d="M419.01,331.33c.02-.59,.76-1.94,1.34-2.01,1.56-.18,4.34,.05,4.22,3.98-.17,5.37-6.72,4.18-6.73,4.03,0-.12,1.09-3.97,1.17-6Z" style="fill:#ae7461;"></path><path d="M420.57,335.32s.09,.07,.25,.15c.15,.08,.42,.13,.7,.04,.57-.19,1.08-1.08,1.14-2.04,.03-.49-.06-.96-.22-1.35-.15-.4-.4-.68-.68-.74-.28-.07-.49,.09-.56,.24-.08,.15-.05,.26-.07,.26-.02,.01-.11-.09-.06-.31,.03-.11,.09-.23,.22-.33,.13-.1,.32-.15,.52-.12,.41,.04,.77,.43,.95,.86,.2,.43,.31,.96,.28,1.51-.07,1.08-.66,2.08-1.44,2.28-.38,.09-.69-.04-.85-.17-.16-.14-.19-.26-.17-.27Z" style="fill:#6f4439;"></path><path d="M420.56,329.35l-1.49,1.28c-5.34-6.16-15.48-21.28-14.92-20.38,0,0,4.17-1.28,8.46-.13,4.29,1.15,12.35,4.11,11.75,9.23-.61,5.13-3.8,9.99-3.8,9.99Z" style="fill:#263238;"></path><path d="M428.05,328.29s0-.11-.05-.31c-.04-.2-.13-.49-.28-.85-.3-.71-.91-1.7-1.97-2.64-1.03-.96-2.51-1.79-4.22-2.5-1.7-.73-3.64-1.35-5.51-2.35-1.88-.97-3.53-2.16-4.92-3.35-1.38-1.2-2.5-2.41-3.37-3.49-.86-1.08-1.47-2.02-1.89-2.67-.19-.31-.34-.56-.46-.76-.11-.17-.17-.26-.17-.26,0,0,.04,.1,.13,.28,.09,.18,.22,.45,.42,.79,.38,.67,.98,1.63,1.82,2.73,.85,1.1,1.96,2.34,3.35,3.56,1.39,1.21,3.05,2.41,4.96,3.4,1.89,1.02,3.84,1.63,5.54,2.34,1.7,.69,3.16,1.5,4.19,2.42,1.05,.9,1.67,1.85,2,2.54,.32,.7,.4,1.12,.43,1.11Z" style="fill:#455a64;"></path><path d="M426.8,329.59s.09-.43-.1-1.19c-.18-.75-.72-1.79-1.77-2.7-1.04-.94-2.58-1.6-4.3-2.16-1.72-.55-3.58-1.23-5.38-2.28-1.79-1.04-3.37-2.25-4.65-3.51-1.29-1.25-2.31-2.52-3.08-3.64-.78-1.12-1.28-2.1-1.65-2.77-.16-.32-.28-.58-.38-.79-.09-.18-.14-.27-.15-.27,0,0,.03,.1,.1,.29,.09,.21,.2,.48,.34,.82,.33,.69,.81,1.69,1.58,2.83,.76,1.14,1.77,2.44,3.06,3.72,1.28,1.28,2.88,2.51,4.69,3.57,1.81,1.06,3.71,1.74,5.43,2.28,1.71,.55,3.23,1.18,4.25,2.07,1.04,.87,1.59,1.86,1.8,2.58,.22,.73,.16,1.16,.2,1.16Z" style="fill:#455a64;"></path><g><path d="M407.1,333.59c.15-.07,.31-.15,.48-.13,.15,.02,.28,.13,.39,.24,.5,.54,.62,1.38,.3,2.04-.32,.66-1.06,1.09-1.79,1.04-.73-.05-1.57-.52-1.92-1.88,.79-.39,1.74-.93,2.53-1.32Z" style="fill:#6f4439;"></path><path d="M406.43,336.85c0-.05,.49,.02,1.09-.39,.29-.2,.58-.53,.69-.98,.12-.44,.05-.99-.24-1.43-.15-.21-.34-.42-.53-.4-.2,.01-.44,.17-.66,.27-.42,.21-.81,.4-1.17,.58-.67,.32-1.09,.5-1.11,.47-.02-.03,.38-.27,1.02-.64,.35-.19,.74-.4,1.14-.63,.22-.1,.41-.27,.75-.31,.17-.01,.35,.07,.46,.17,.12,.1,.21,.22,.3,.34,.34,.51,.4,1.13,.25,1.64-.14,.51-.49,.87-.82,1.07-.69,.41-1.21,.25-1.19,.23Z" style="fill:#263238;"></path></g></g><path d="M428.01,321.31s.07,.19,.16,.55c.05,.18,.09,.4,.13,.65,.04,.26,.1,.55,.12,.87l.05,.51,.02,.56c.02,.39,0,.8,0,1.23-.05,.86-.16,1.81-.38,2.79-.23,.98-.54,1.88-.88,2.68-.2,.39-.35,.77-.56,1.1l-.28,.48-.29,.42c-.18,.28-.37,.5-.54,.7l-.23,.28-.22,.21c-.26,.25-.41,.39-.42,.38-.03-.03,.58-.57,1.3-1.65l.28-.43c.09-.16,.18-.32,.27-.48,.2-.33,.35-.71,.54-1.09,.33-.79,.63-1.69,.85-2.65,.22-.97,.33-1.9,.39-2.76,.01-.43,.04-.84,.02-1.22,0-.19,0-.37-.01-.55-.01-.18-.03-.34-.04-.51-.02-.32-.06-.62-.09-.87-.03-.26-.06-.48-.1-.65-.07-.36-.1-.56-.08-.56Z" style="fill:#455a64;"></path></g><path d="M372.81,332.51s0-.21,0-.61c.02-.42,.04-1.02,.06-1.8,.02-.4,.03-.84,.05-1.33,.04-.49,.14-1.01,.22-1.59,.08-.57,.17-1.19,.27-1.85,.07-.67,.31-1.34,.47-2.07,.64-2.94,1.98-6.42,4.13-10.11,2.16-3.68,5.3-7.53,9.59-10.8,.54-.4,1.08-.81,1.64-1.23,.57-.38,1.18-.73,1.78-1.1,.61-.35,1.19-.78,1.85-1.08,.65-.31,1.3-.63,1.97-.95l1-.48c.35-.13,.7-.26,1.05-.39,.7-.26,1.42-.52,2.13-.79,.73-.24,1.48-.4,2.24-.61,.76-.17,1.51-.44,2.3-.53,1.57-.23,3.16-.55,4.8-.57,.82-.03,1.64-.11,2.48-.1,.83,.04,1.67,.08,2.51,.12,.42,.03,.85,.03,1.27,.08l1.27,.19c.85,.14,1.71,.24,2.56,.41,1.68,.45,3.42,.79,5.07,1.48,1.71,.54,3.31,1.38,4.96,2.17,.8,.43,1.57,.94,2.37,1.41,.39,.25,.8,.46,1.18,.74l1.12,.84c1.55,1.06,2.9,2.38,4.32,3.66,1.28,1.41,2.62,2.8,3.73,4.4l.87,1.17,.77,1.25,.77,1.26c.27,.41,.51,.84,.71,1.3,.43,.89,.86,1.78,1.29,2.68,.34,.93,.69,1.87,1.03,2.82,1.24,3.82,1.91,7.87,1.96,12-.05,4.13-.72,8.18-1.96,12-.35,.94-.69,1.88-1.03,2.82-.43,.9-.86,1.79-1.29,2.68-.2,.45-.44,.88-.71,1.3l-.77,1.26-.77,1.25-.88,1.17c-1.1,1.61-2.45,2.99-3.73,4.4-1.42,1.28-2.77,2.6-4.32,3.66l-1.12,.84c-.37,.28-.79,.49-1.18,.74-.8,.47-1.57,.98-2.37,1.41-1.65,.79-3.25,1.63-4.96,2.17-1.65,.69-3.39,1.03-5.07,1.48-.85,.17-1.71,.27-2.56,.41l-1.27,.19c-.42,.05-.85,.05-1.27,.08-.84,.04-1.68,.08-2.51,.12-.83,.01-1.66-.07-2.48-.1-1.64-.01-3.23-.34-4.8-.57-.79-.08-1.54-.35-2.3-.53-.75-.21-1.51-.36-2.24-.61-.72-.26-1.43-.53-2.13-.79l-1.05-.39-1-.48c-.66-.32-1.32-.64-1.97-.95-.66-.3-1.24-.73-1.85-1.08-.6-.37-1.21-.72-1.78-1.1-.55-.41-1.1-.82-1.64-1.23-4.29-3.28-7.43-7.13-9.59-10.8-2.15-3.69-3.49-7.17-4.13-10.11-.16-.73-.4-1.41-.47-2.07-.1-.66-.19-1.28-.27-1.85-.08-.57-.17-1.1-.22-1.59-.02-.49-.04-.93-.05-1.33-.03-.78-.05-1.37-.06-1.8-.01-.4,0-.61,0-.61,0,0,.03,.21,.06,.61,.03,.42,.07,1.02,.12,1.79l.08,1.32c.05,.48,.15,1.01,.24,1.58,.09,.57,.19,1.18,.29,1.84,.08,.66,.32,1.33,.49,2.06,.67,2.92,2.03,6.36,4.18,10.01,2.17,3.64,5.3,7.44,9.56,10.66,.54,.4,1.08,.8,1.62,1.21,.57,.37,1.17,.72,1.77,1.08,.61,.34,1.18,.76,1.83,1.06,.64,.31,1.29,.62,1.95,.93l.99,.47c.35,.13,.69,.25,1.04,.38,.7,.25,1.4,.51,2.11,.77,.72,.24,1.47,.39,2.21,.59,.75,.17,1.49,.43,2.27,.51,1.55,.22,3.12,.54,4.75,.55,.81,.03,1.63,.11,2.45,.09,.82-.04,1.65-.09,2.48-.13,.42-.03,.84-.03,1.25-.08l1.25-.19c.84-.14,1.68-.24,2.52-.41,1.66-.45,3.37-.79,5-1.47,1.68-.54,3.27-1.37,4.89-2.15,.79-.43,1.55-.93,2.34-1.4,.38-.25,.79-.46,1.16-.73l1.1-.83c1.53-1.05,2.86-2.36,4.26-3.62,1.26-1.4,2.59-2.76,3.68-4.35l.86-1.15,.75-1.23,.75-1.24c.26-.41,.5-.83,.7-1.28,.42-.88,.85-1.76,1.27-2.65,.34-.92,.68-1.85,1.02-2.78,1.22-3.77,1.88-7.77,1.93-11.84-.05-4.07-.71-8.07-1.94-11.83-.34-.93-.68-1.86-1.02-2.78-.43-.89-.85-1.77-1.27-2.65-.2-.45-.44-.87-.7-1.28l-.75-1.24-.76-1.23-.86-1.15c-1.09-1.58-2.41-2.95-3.68-4.35-1.4-1.26-2.73-2.57-4.25-3.62l-1.1-.83c-.37-.28-.78-.49-1.16-.73-.78-.47-1.54-.97-2.34-1.4-1.63-.78-3.21-1.61-4.89-2.15-1.63-.68-3.35-1.02-5-1.47-.84-.17-1.69-.27-2.52-.41l-1.25-.19c-.42-.06-.84-.05-1.25-.08-.83-.04-1.66-.09-2.48-.13-.82-.01-1.64,.07-2.45,.09-1.63,0-3.19,.33-4.75,.55-.78,.08-1.52,.34-2.27,.51-.74,.2-1.49,.35-2.21,.59-.71,.26-1.42,.52-2.11,.77-.35,.13-.7,.25-1.04,.38l-.99,.47c-.66,.31-1.31,.63-1.95,.93-.65,.29-1.23,.71-1.83,1.06-.59,.37-1.2,.71-1.77,1.08-.55,.41-1.09,.81-1.62,1.21-4.26,3.22-7.39,7.02-9.56,10.66-2.15,3.65-3.52,7.1-4.18,10.01-.17,.73-.42,1.4-.49,2.06-.1,.65-.2,1.27-.29,1.84-.09,.57-.19,1.09-.24,1.58-.03,.48-.06,.92-.08,1.32-.05,.77-.09,1.37-.12,1.79-.03,.4-.06,.61-.06,.61Z" style="fill:#263238;"></path></g></g><g id="freepik--Character_2--inject-62"><g><g><circle cx="378.38" cy="181.8" r="45.18" transform="translate(-17.73 320.8) rotate(-45)" style="fill:#e0e0e0;"></circle><path d="M378.38,226.98c14.15,0,26.78-6.51,35.06-16.69-3.63-3.96-7.77-7.89-10.57-9.02-6.01-2.43-18.18-3.15-18.18-3.15l-14.13-.79s-16.69,2.46-20.27,5.51c-1.7,1.45-4.72,4.3-7.42,6.89,8.27,10.5,21.09,17.25,35.5,17.25Z" style="fill:#8988E3;"></path><g><g><path d="M362.05,164.76c.71-8.23,7.63-14.54,15.89-14.49h.82c8.85,.57,13.32,8.41,12.51,17.24l-1.93,32.67-2.6,2.28c-5.36,4.69-13.61,3.62-17.6-2.28h0c.12-2.49,.23-5.29,.21-5.29,0,0-8.51-1.37-8.56-9.88-.03-4.11,.6-12.58,1.26-20.24Z" style="fill:#ffbf9d;"></path><path d="M369.35,194.89s5.36,.34,11.1-3.22c0,0-2.7,6.38-11.19,5.57l.09-2.36Z" style="fill:#ff9a6c;"></path><path d="M363.77,172.32c-.03,.64,.5,1.19,1.17,1.23,.67,.04,1.23-.45,1.26-1.09,.03-.64-.5-1.19-1.16-1.23-.67-.04-1.23,.45-1.26,1.09Z" style="fill:#263238;"></path><path d="M363.84,168.53c.15,.16,1.07-.52,2.38-.51,1.31,0,2.26,.67,2.41,.51,.07-.07-.08-.36-.5-.66-.41-.31-1.11-.6-1.92-.6-.81,0-1.5,.3-1.9,.6-.4,.31-.54,.59-.47,.66Z" style="fill:#263238;"></path><path d="M375.48,172.67c-.03,.64,.5,1.19,1.17,1.23,.67,.04,1.23-.45,1.26-1.09,.03-.64-.5-1.19-1.16-1.23-.67-.04-1.23,.45-1.26,1.09Z" style="fill:#263238;"></path><path d="M376.66,168.91c.15,.16,1.08-.52,2.38-.51,1.31,0,2.26,.67,2.41,.51,.07-.07-.08-.36-.5-.66-.41-.31-1.11-.6-1.92-.61-.81,0-1.5,.3-1.9,.6-.4,.31-.54,.59-.47,.66Z" style="fill:#263238;"></path><path d="M371.91,178.93c0-.07-.81-.22-2.12-.4-.33-.04-.65-.1-.7-.33-.08-.24,.06-.6,.23-.99,.32-.81,.65-1.65,1-2.54,1.39-3.61,2.4-6.59,2.26-6.64-.15-.05-1.39,2.83-2.78,6.44-.34,.89-.66,1.74-.96,2.55-.13,.38-.35,.81-.18,1.31,.09,.25,.33,.43,.55,.49,.21,.07,.4,.07,.57,.08,1.33,.08,2.15,.09,2.15,.01Z" style="fill:#263238;"></path><path d="M376.26,164.81c.18,.33,1.45,0,2.99-.03,1.55-.06,2.83,.22,2.99-.12,.07-.16-.19-.47-.73-.74-.54-.27-1.37-.49-2.29-.47-.93,.03-1.74,.28-2.27,.59-.53,.3-.77,.62-.69,.78Z" style="fill:#263238;"></path><path d="M363.8,164.69c.27,.3,1.34,.02,2.62,.03,1.28-.03,2.36,.25,2.62-.06,.11-.15-.05-.45-.52-.74-.46-.29-1.24-.53-2.12-.53-.88,0-1.65,.26-2.1,.55-.46,.3-.61,.6-.5,.75Z" style="fill:#263238;"></path><path d="M390.54,173.81c.15-.06,5.86-1.7,5.64,4.12-.22,5.82-6.01,4.4-6.02,4.23,0-.17,.38-8.35,.38-8.35Z" style="fill:#ffbf9d;"></path><path d="M392.02,180.02s.1,.07,.27,.16c.16,.08,.45,.15,.76,.04,.62-.2,1.18-1.16,1.24-2.21,.03-.53-.06-1.04-.23-1.46-.16-.43-.43-.74-.73-.81-.31-.08-.53,.09-.61,.26-.08,.16-.05,.28-.08,.29-.02,.01-.12-.1-.07-.34,.03-.11,.1-.25,.24-.36,.14-.11,.35-.16,.57-.13,.45,.05,.84,.48,1.03,.94,.21,.47,.33,1.04,.29,1.63-.08,1.17-.72,2.25-1.57,2.46-.41,.09-.75-.04-.92-.19-.17-.15-.2-.28-.18-.29Z" style="fill:#ff9a6c;"></path><path d="M375.98,179.93c-.2-.02-.27,1.31-1.46,2.2-1.19,.89-2.61,.67-2.63,.86-.02,.08,.3,.28,.9,.32,.59,.05,1.46-.09,2.19-.64,.73-.55,1.07-1.31,1.14-1.85,.08-.56-.05-.89-.14-.89Z" style="fill:#263238;"></path></g><g><path d="M350.67,156.56c.1-.34,.36-.61,.68-.78,.68-.37,1.45-.29,2.19-.28,1.85,.04,3.7-.37,5.37-1.15-.56-.31-1.09-.68-1.53-1.15-.91-.97-1.4-2.43-.92-3.67,.09-.23,.24-.48,.48-.54,.38-.1,.7,.28,.95,.58,.83,1,1.62,1.44,2.92,1.36,.81-.05,1.59-.2,2.24-.58,.03-.03,.05-.05,.08-.08,.31-.3,.62-.59,.92-.87h0c2.27-2.09,4.2-3.53,6.17-4.24,2.88-1.04,7.65-1.34,10.58-.46,2.93,.88,5.51,3.38,5.81,6.43,1.71-1.35,4.2-1.25,6.2-.36l.05-.02c2.22,.88,3.42,3.31,4,5.63,.03,.13,.06,.26,.09,.38,.72,1.23,1.72,2.31,2.93,3.07,.21,.13,.46,.3,.47,.55,.02,.25-.2,.45-.41,.59-.55,.37-1.19,.6-1.85,.69,.19,.55,.41,1.09,.69,1.61,.24,.44,.52,.97,.29,1.41-.18,.34-.63,.47-1.01,.4-.38-.07-.71-.29-1.03-.51,.23,.61,.46,1.22,.69,1.83-.82,.11-1.66,.02-2.44-.25-.55,2.13-1.06,6.1-1.66,7.53-1.55-.03-1.91-.21-2.7,.02-1.02,.3-.7,2.1-1.99,1.54-.66-.28-1.59-2.85-1.79-3.54-1.32-4.56-1.64-9.41-.94-14.11-.9-1.03-2-1.88-3.21-2.5l.1,.09c-2.35-.91-5.01-1.82-7.31-.78-1.78,.8-2.88,2.58-4.24,3.99-2.58,2.66-5.44,4.03-9.14,4.05-.42,2.56-.67,6.75-.88,9.15l-1.88-4.87v.02c-.16-.29-.28-.58-.41-.86l-.04-.09h0c-.19-.47-.38-.94-.63-1.4l-.02,.02c-1.34,1.1-3.19-.72-2.12-2.08,.21-.27,.46-.51,.75-.7-.61,.54-1.51,.77-2.28,.51-.77-.27-1.35-1.08-1.25-1.88,.07-.55,.48-1.03,.99-1.23-1.05,.04-2.12-.22-3.01-.78-.59-.36-1.16-.95-.93-1.69Z" style="fill:#263238;"></path><path d="M383.89,152.03s.35,.24,.83,.81c.47,.57,.99,1.55,1.21,2.87,.11,.66,.17,1.39,.14,2.17-.02,.78-.12,1.62-.21,2.5-.09,.88-.18,1.82-.16,2.79,.01,.49,.05,.98,.14,1.48,.09,.49,.2,1.02,.55,1.45,.28,.35,.76,.52,1.19,.45,.43-.06,.81-.27,1.1-.57,.57-.62,.74-1.43,.9-2.14l-.18,.02c.27,.65,.55,1.3,.97,1.82,.42,.53,1.01,.88,1.62,.96,.31,.04,.62,0,.88-.12,.27-.12,.48-.34,.62-.57,.14-.23,.21-.49,.21-.75,0-.25-.1-.5-.25-.67l-.09,.08c.63,.77,1.31,1.2,1.78,1.44,.24,.12,.43,.19,.56,.24,.13,.04,.2,.06,.2,.06,0,0-.06-.03-.19-.09-.12-.06-.31-.14-.54-.27-.46-.25-1.11-.69-1.72-1.46l-.09,.08c.28,.31,.27,.85,.01,1.27-.13,.21-.32,.4-.56,.5-.24,.11-.52,.14-.8,.1-.56-.08-1.12-.41-1.51-.91-.4-.5-.67-1.13-.94-1.78l-.11-.28-.07,.29c-.16,.71-.33,1.48-.85,2.04-.26,.27-.61,.46-.99,.51-.38,.06-.77-.08-1.01-.38-.31-.37-.42-.88-.51-1.36-.09-.49-.13-.97-.14-1.45-.02-.96,.07-1.89,.15-2.77,.09-.88,.17-1.72,.19-2.52,.02-.79-.05-1.54-.17-2.2-.24-1.34-.79-2.33-1.29-2.9-.5-.57-.89-.76-.89-.76Z" style="fill:#455a64;"></path><path d="M357.25,159.38s.02,.02,.07,.06l.21,.16c.09,.07,.21,.16,.35,.24,.14,.09,.31,.2,.51,.29,.78,.4,2.03,.82,3.62,.78,1.57-.03,3.48-.52,5.21-1.72,1.74-1.16,3.3-2.91,4.6-4.93,.66-1.01,1.2-2.05,1.79-3,.59-.96,1.23-1.84,1.99-2.53,.76-.69,1.62-1.19,2.51-1.4,.44-.11,.88-.13,1.3-.1,.42,.04,.81,.14,1.18,.27,.73,.27,1.3,.7,1.74,1.13,.44,.44,.72,.89,.92,1.28,.36,.8,.36,1.3,.39,1.29,0,0,0-.03,0-.09,0-.07-.02-.16-.03-.26-.03-.23-.12-.56-.29-.97-.19-.4-.47-.87-.91-1.33-.44-.45-1.02-.9-1.77-1.19-.37-.14-.78-.25-1.21-.29-.43-.03-.9-.02-1.35,.1-.92,.21-1.81,.72-2.59,1.43-.79,.7-1.44,1.6-2.04,2.56-.6,.96-1.14,2-1.79,3-1.28,2.01-2.82,3.74-4.53,4.89-1.7,1.18-3.56,1.68-5.11,1.73-1.56,.05-2.8-.34-3.58-.71-.79-.38-1.15-.71-1.17-.69Z" style="fill:#455a64;"></path><path d="M356.61,155.61s.1,.09,.3,.22c.2,.14,.5,.31,.89,.49,.39,.19,.87,.37,1.42,.52,.55,.15,1.17,.26,1.82,.31,.66,.04,1.28,0,1.85-.06,.56-.08,1.06-.19,1.47-.33,.41-.13,.73-.26,.95-.37,.22-.1,.33-.17,.33-.18-.02-.03-.49,.19-1.31,.41-.41,.11-.9,.21-1.46,.28-.55,.06-1.17,.08-1.81,.04-.64-.05-1.25-.15-1.79-.29-.54-.14-1.02-.3-1.4-.47-.78-.33-1.22-.62-1.24-.59Z" style="fill:#fff;"></path></g></g></g><path d="M333.2,181.8s0-.25,.01-.73c.02-.5,.05-1.22,.08-2.15,.02-.47,.04-1,.07-1.59,.05-.58,.17-1.21,.26-1.9,.1-.69,.21-1.42,.33-2.21,.09-.8,.37-1.6,.57-2.48,.77-3.51,2.38-7.67,4.95-12.09,2.59-4.4,6.34-9,11.47-12.91,.64-.48,1.3-.97,1.96-1.47,.69-.45,1.41-.87,2.13-1.32,.73-.42,1.42-.93,2.21-1.29,.78-.38,1.56-.75,2.35-1.14,.4-.19,.8-.38,1.2-.57,.42-.15,.84-.31,1.26-.46,.84-.31,1.69-.62,2.55-.94,.87-.29,1.77-.48,2.67-.72,.91-.21,1.8-.53,2.75-.63,1.88-.27,3.77-.66,5.74-.68,.98-.04,1.96-.13,2.96-.12,.99,.05,2,.1,3,.15,.5,.03,1.01,.03,1.52,.1,.5,.08,1.01,.15,1.51,.23,1.01,.17,2.04,.28,3.06,.49,2.01,.54,4.08,.95,6.06,1.77l1.51,.55c.25,.09,.51,.18,.75,.28l.73,.35c.97,.47,1.95,.94,2.94,1.41,.96,.52,1.88,1.12,2.83,1.69,.47,.3,.96,.55,1.4,.89l1.34,1c1.85,1.27,3.47,2.85,5.16,4.37,.77,.84,1.54,1.69,2.31,2.54l.58,.64,.52,.69,1.04,1.39,1.05,1.4,.92,1.49,.91,1.5,.46,.75,.39,.79c.51,1.06,1.03,2.13,1.54,3.2l1.23,3.36c1.48,4.56,2.28,9.41,2.35,14.33-.06,4.93-.86,9.78-2.34,14.34-.41,1.13-.82,2.25-1.23,3.37-.52,1.07-1.03,2.14-1.54,3.2l-.39,.79-.46,.75-.91,1.5-.92,1.49-1.05,1.4-1.04,1.39-.52,.69-.58,.64c-.77,.85-1.55,1.7-2.31,2.54-1.69,1.53-3.31,3.11-5.16,4.38l-1.34,1c-.44,.34-.94,.59-1.4,.89-.95,.56-1.87,1.17-2.83,1.69-.98,.47-1.96,.94-2.94,1.41l-.73,.35c-.25,.1-.5,.19-.75,.28l-1.51,.55c-1.98,.82-4.05,1.23-6.06,1.77-1.02,.21-2.05,.33-3.06,.49-.51,.08-1.01,.15-1.51,.23-.5,.07-1.01,.06-1.52,.1-1.01,.05-2.01,.1-3,.15-.99,.01-1.98-.08-2.96-.12-1.97-.02-3.86-.41-5.74-.68-.95-.1-1.84-.42-2.75-.63-.9-.25-1.81-.43-2.67-.72-.86-.32-1.71-.63-2.55-.94-.42-.15-.84-.31-1.26-.46-.4-.19-.8-.38-1.2-.57-.79-.38-1.58-.76-2.35-1.14-.78-.36-1.48-.87-2.21-1.29-.72-.44-1.44-.86-2.13-1.32-.66-.5-1.31-.98-1.96-1.47-5.13-3.91-8.88-8.51-11.47-12.91-2.57-4.42-4.18-8.57-4.94-12.09-.2-.88-.48-1.68-.57-2.48-.12-.79-.22-1.53-.33-2.21-.09-.69-.21-1.32-.26-1.9-.02-.58-.05-1.11-.07-1.59-.04-.93-.06-1.65-.08-2.15-.02-.48-.01-.73-.01-.73,0,0,.03,.25,.06,.73,.03,.5,.08,1.21,.13,2.14,.03,.47,.06,1,.09,1.58,.06,.58,.18,1.21,.28,1.89,.11,.68,.22,1.42,.35,2.2,.09,.79,.39,1.59,.59,2.46,.79,3.49,2.42,7.62,5,11.99,2.6,4.35,6.34,8.91,11.44,12.77,.64,.48,1.29,.96,1.95,1.45,.68,.45,1.4,.86,2.11,1.3,.73,.41,1.41,.92,2.19,1.27,.77,.37,1.55,.74,2.33,1.12,.39,.19,.79,.37,1.19,.56,.41,.15,.83,.3,1.25,.45,.84,.3,1.68,.61,2.53,.92,.86,.28,1.76,.47,2.65,.71,.9,.2,1.78,.52,2.72,.62,1.86,.26,3.74,.65,5.68,.66,.97,.03,1.95,.13,2.93,.11,.98-.05,1.98-.1,2.97-.15,.5-.03,1-.03,1.5-.1,.5-.08,1-.15,1.5-.23,1-.17,2.02-.28,3.02-.49,1.98-.54,4.04-.94,5.99-1.76l1.49-.55c.25-.09,.5-.18,.75-.28l.72-.35c.96-.46,1.93-.93,2.9-1.4,.95-.51,1.86-1.11,2.8-1.67,.46-.29,.95-.55,1.39-.88l1.32-.99c1.83-1.25,3.42-2.82,5.1-4.33,.76-.83,1.52-1.67,2.28-2.52l.57-.63,.52-.68,1.03-1.38,1.03-1.38,.9-1.48,.9-1.49,.45-.75,.38-.79c.51-1.05,1.02-2.11,1.53-3.17,.4-1.11,.81-2.21,1.22-3.33,1.46-4.51,2.25-9.3,2.32-14.18-.06-4.87-.85-9.66-2.32-14.17-.41-1.11-.81-2.22-1.22-3.33-.51-1.06-1.02-2.12-1.53-3.17-.13-.26-.25-.53-.38-.79l-.45-.75-.9-1.49-.9-1.48-1.03-1.38-1.03-1.38-.52-.68-.57-.63c-.76-.84-1.53-1.68-2.28-2.52-1.67-1.51-3.27-3.08-5.1-4.33l-1.32-.99c-.44-.33-.93-.58-1.39-.88-.94-.56-1.85-1.16-2.8-1.67-.97-.47-1.94-.94-2.9-1.4l-.72-.35c-.25-.1-.5-.19-.75-.28l-1.49-.55c-1.95-.82-4.01-1.22-5.99-1.76-1.01-.21-2.02-.33-3.02-.49-.5-.08-1-.15-1.5-.23-.5-.07-1-.06-1.5-.1-1-.05-1.99-.1-2.97-.15-.98-.02-1.96,.08-2.93,.11-1.95,.01-3.83,.39-5.68,.66-.94,.1-1.82,.41-2.72,.62-.89,.24-1.79,.43-2.65,.71-.85,.31-1.7,.62-2.53,.92-.42,.15-.83,.3-1.25,.45-.4,.19-.79,.38-1.19,.56-.79,.38-1.56,.75-2.33,1.12-.78,.35-1.47,.86-2.19,1.27-.71,.44-1.43,.85-2.11,1.3-.66,.49-1.3,.97-1.95,1.45-5.1,3.86-8.85,8.41-11.44,12.77-2.57,4.37-4.21,8.5-5,11.99-.2,.87-.5,1.67-.59,2.46-.12,.78-.24,1.52-.35,2.2-.1,.68-.22,1.31-.28,1.89-.03,.58-.06,1.11-.09,1.58-.06,.93-.1,1.65-.13,2.14-.03,.48-.06,.73-.06,.73Z" style="fill:#263238;"></path></g></g><g id="freepik--Character_1--inject-62"><g><g><g><path d="M259.77,469.33l-144.47-.08c-17.37,0-31.45-13.51-31.45-30.17l.07-347.16c0-16.66,14.1-30.17,31.49-30.16l144.47,.08c17.38,0,31.45,13.52,31.45,30.17l-.07,347.16c0,16.66-14.1,30.17-31.49,30.16Z" style="fill:#263238;"></path><path d="M259.73,74.13l-28.01-.02-81.8-.05h-9.85l-24.51-.02c-12.18,0-22.05,9.45-22.05,21.12l-.07,338.85c0,11.67,9.86,21.12,22.03,21.13l144.18,.08c12.17,0,22.05-9.45,22.05-21.12l.07-338.85c0-11.66-9.86-21.12-22.03-21.13Z" style="fill:#f5f5f5;"></path></g><g><path d="M181.18,367.84c-.21,1.54-.42,3.01-.63,4.39,15.51,1.81,30.1,2.04,43.24-.23,0-.33,0-.67,0-1.02l-42.6-3.14Z" style="fill:none;"></path><path d="M264.47,261.79l-9.79,4.9c-1.74,.87-3.38,1.85-4.95,2.91l6.41,18.05,4.64-21.74,11.5,3.19-7.99-2.22s.03-2.54,.18-5.1Z" style="fill:none;"></path><g style="opacity:.3;"><path d="M282.18,328.14c-2.8,1.3-5.69,2.29-8.62,2.94,4.38-14.25,7.01-31.21,8.62-43.44v-17.85l-1.14-5.02,1.14-1.86v-53.48l-22.86,11.43-21.27,10.64c-2.16,1.08-4.24,2.26-6.25,3.52-1.9-1.39-3.7-2.22-5.28-2.67l-7.49-2.71c1.86-4.17,4.7-8.23,3.99-12.7-.87-5.5-6.75-8.82-8.29-14.16-1.12-3.85,.23-7.92,.92-11.88,2.46-13.91-4.54-29.71-10.06-42.66h0c-.12-.38-.24-.76-.36-1.14-2-6.32-6.27-11.63-10.99-16.17-3.97-3.82-9.19-5.67-14.62-5.99-5.43-.33-8.7-1.22-15.81,.43-12.62,2.93-22.21,11.04-28.18,22.84-1.03,2.03-1.84,4.24-2.46,6.55h0v.08c-.73,2.69-1.18,5.51-1.34,8.36-7.71,46.92-12.88,45.73-20.4,71.33-2.16,7.36-4.34,14.82-4.62,22.5-.23,6.22,.77,12.68-1.34,18.51-1.67,4.61-5.26,8.91-4.5,13.77,.82,5.26,5.98,7.79,11.34,9.02,.12,.95,.24,1.91,.36,2.88,.57,4.25,1.16,8.65,1.77,13.17,.59,4.52,1.26,9.19,1.55,13.98,.08,4.84,1.04,9.81,2.82,14.55,1.79,4.71,4.46,9.33,8.43,12.78,1.96,1.73,4.27,3.07,6.75,3.99,1.07,.38,2.17,.66,3.29,.86l-10.87,25.68c-10.32,22.42-14.59,45.65-14.59,45.65l3.95,.61c-2.84,13.1-5.07,24.1-5.07,24.1H240.8l-3.46-21.83h6.84c1.27-3.6-10.66-60.13-10.8-64.4h0s.06-.43,.1-1.25c.03-.91,.06-2.1,.1-3.59,.03-1.41,.07-3.12,.12-5.07,9.39,5.81,20.23,9.17,31.47,9.75,5.61,.29,11.32-.12,17.01-1.26v-40.79Zm-101.63,44.1c.21-1.39,.42-2.85,.63-4.39l42.6,3.14c0,.34,0,.69,0,1.02-13.14,2.27-27.73,2.04-43.24,.23Zm80.24-106.32l-4.64,21.74-6.41-18.05c1.57-1.07,3.21-2.05,4.95-2.91l9.79-4.9c-.15,2.55-.18,5.1-.18,5.1l7.99,2.22-11.5-3.19Z"></path><g><path d="M282.18,328.14c-2.8,1.3-5.69,2.29-8.62,2.94,4.38-14.25,7.01-31.21,8.62-43.44v-17.85l-1.14-5.02,1.14-1.86v-53.48l-22.86,11.43-21.27,10.64c-2.16,1.08-4.24,2.26-6.25,3.52-1.9-1.39-3.7-2.22-5.28-2.67l-7.49-2.71c1.86-4.17,4.7-8.23,3.99-12.7-.87-5.5-6.75-8.82-8.29-14.16-1.12-3.85,.23-7.92,.92-11.88,2.46-13.91-4.54-29.71-10.06-42.66h0c-.12-.38-.24-.76-.36-1.14-2-6.32-6.27-11.63-10.99-16.17-3.97-3.82-9.19-5.67-14.62-5.99-5.43-.33-8.7-1.22-15.81,.43-12.62,2.93-22.21,11.04-28.18,22.84-1.03,2.03-1.84,4.24-2.46,6.55h0v.08c-.73,2.69-1.18,5.51-1.34,8.36-7.71,46.92-12.88,45.73-20.4,71.33-2.16,7.36-4.34,14.82-4.62,22.5-.23,6.22,.77,12.68-1.34,18.51-1.67,4.61-5.26,8.91-4.5,13.77,.82,5.26,5.98,7.79,11.34,9.02,.12,.95,.24,1.91,.36,2.88,.57,4.25,1.16,8.65,1.77,13.17,.59,4.52,1.26,9.19,1.55,13.98,.08,4.84,1.04,9.81,2.82,14.55,1.79,4.71,4.46,9.33,8.43,12.78,1.96,1.73,4.27,3.07,6.75,3.99,1.07,.38,2.17,.66,3.29,.86l-10.87,25.68c-10.32,22.42-14.59,45.65-14.59,45.65l3.95,.61c-2.84,13.1-5.07,24.1-5.07,24.1H240.8l-3.46-21.83h6.84c1.27-3.6-10.66-60.13-10.8-64.4h0s.06-.43,.1-1.25c.03-.91,.06-2.1,.1-3.59,.03-1.41,.07-3.12,.12-5.07,9.39,5.81,20.23,9.17,31.47,9.75,5.61,.29,11.32-.12,17.01-1.26v-40.79Zm-101.63,44.1c.21-1.39,.42-2.85,.63-4.39l42.6,3.14c0,.34,0,.69,0,1.02-13.14,2.27-27.73,2.04-43.24,.23Zm80.24-106.32l-4.64,21.74-6.41-18.05c1.57-1.07,3.21-2.05,4.95-2.91l9.79-4.9c-.15,2.55-.18,5.1-.18,5.1l7.99,2.22-11.5-3.19Z" style="fill:none;"></path><path d="M260.79,265.92s.26,.05,.77,.18c.56,.15,1.32,.34,2.28,.59,2.05,.55,4.94,1.31,8.5,2.26l-.1,.35c-2.39-.65-5.08-1.38-8-2.18l-.17-.05v-.17c.06-1.63,.11-3.34,.17-5.11l.35,.23c-2.24,1.13-4.6,2.31-7.05,3.54-1.22,.62-2.48,1.23-3.72,1.88-1.24,.66-2.46,1.4-3.66,2.21l-.26,.18,.1-.3c2.32,6.56,4.5,12.73,6.38,18.06l-.44,.03c1.43-6.47,2.63-11.91,3.49-15.78,.42-1.85,.76-3.33,1-4.39,.11-.47,.2-.85,.27-1.14,.06-.25,.1-.38,.11-.37,0,.01-.02,.16-.07,.43-.06,.31-.13,.71-.23,1.2-.22,1.08-.52,2.59-.89,4.47-.79,3.85-1.9,9.25-3.23,15.68l-.17,.8-.28-.77c-1.9-5.33-4.1-11.49-6.44-18.04l-.07-.19,.17-.11,.27-.18c1.21-.81,2.45-1.56,3.71-2.23,1.26-.67,2.51-1.26,3.74-1.88,2.45-1.22,4.81-2.4,7.06-3.51l.36-.18-.02,.41c-.07,1.76-.14,3.47-.2,5.09l-.16-.22c2.92,.83,5.6,1.58,7.98,2.26l-.1,.35c-3.49-1.01-6.32-1.83-8.33-2.42-.96-.29-1.72-.51-2.29-.68-.53-.16-.81-.25-.82-.27Z" style="fill:#455a64;"></path><path d="M180.55,372.24s.09,0,.24,0c.18,.01,.4,.03,.66,.05,.61,.05,1.43,.12,2.47,.21,2.17,.19,5.31,.46,9.21,.66,7.79,.39,18.7,.6,30.62-1.42l-.22,.26c0-.32,0-.67,0-1.02l.24,.26c-.43-.03-.9-.07-1.37-.1-18.29-1.35-34.05-2.57-41.22-3.19l.12-.1c-.22,1.38-.4,2.45-.53,3.23l-.15,.85c-.04,.19-.06,.29-.06,.3,0,0,0-.08,.02-.27,.02-.22,.05-.49,.09-.83,.1-.8,.23-1.9,.41-3.31v-.1h.12c7.18,.45,22.95,1.55,41.24,2.9,.47,.03,.94,.07,1.37,.1l.24,.02v.24c0,.35,0,.7,.01,1.02v.22l-.22,.04c-11.98,2.03-22.93,1.75-30.72,1.27-3.91-.25-7.05-.58-9.21-.82-1.09-.12-1.95-.25-2.51-.33-.56-.08-.85-.12-.83-.14Z" style="fill:#455a64;"></path><path d="M282.18,328.14c0,.71,.04,14.38,.1,40.79v.08l-.08,.02c-6.61,1.33-14.33,1.89-22.71,.75-8.35-1.12-17.35-3.98-25.87-9.21l.22-.12c-.03,1.51-.07,3.11-.11,4.78-.02,.83-.05,1.68-.07,2.54-.01,.43-.02,.86-.04,1.29l-.03,.65-.02,.33v.17l-.03,.09v.05l-.02,.04v.03s-.09,.11-.15,.09l.15-.15c.24,2.35,.73,4.78,1.16,7.23,.46,2.45,.93,4.94,1.4,7.46,.96,5.05,1.96,10.27,2.98,15.63,1.01,5.36,2.05,10.88,3.04,16.55,.5,2.83,.99,5.71,1.43,8.62,.22,1.46,.44,2.93,.61,4.41,.09,.74,.17,1.49,.23,2.24,.02,.76,.15,1.49-.04,2.33l-.03,.13h-.15c-2.07,0-4.44,0-6.84,0l.19-.22c1.07,6.74,2.26,14.19,3.47,21.82l.04,.23h-.24c-39.03,.01-82.81,.02-130.12,.04h-.3l.06-.29c1.57-7.5,3.31-15.75,5.06-24.11l.2,.29c-1.22-.19-2.58-.4-3.95-.61l-.25-.04,.05-.25c2.4-11.91,5.87-23.9,10.42-35.75,1.14-2.96,2.37-5.9,3.68-8.82,1.28-2.93,2.51-5.9,3.77-8.86,2.51-5.94,5.05-11.92,7.6-17.95l.19,.35c-2.87-.48-5.64-1.66-8.08-3.3-2.44-1.66-4.53-3.82-6.26-6.24-3.44-4.86-5.54-10.63-6.58-16.57-.25-1.49-.43-3-.52-4.51-.06-1.52-.12-3.01-.27-4.52-.26-3.01-.65-6.02-1.05-9.04-.8-6.05-1.61-12.13-2.42-18.25l.2,.22c-1.53-.36-3.07-.82-4.58-1.46-1.5-.64-2.96-1.49-4.2-2.65-1.23-1.15-2.2-2.67-2.6-4.36-.21-.84-.28-1.71-.26-2.57,.06-.86,.19-1.72,.43-2.55,.76-2.69,2.2-5.05,3.33-7.51,1.19-2.43,1.81-5.07,2.05-7.75,.47-5.36-.27-10.8,.39-16.19,.57-5.38,1.93-10.6,3.4-15.72,1.47-5.12,3.04-10.21,4.9-15.16,1.84-4.96,3.94-9.78,5.76-14.67,1.84-4.88,3.36-9.85,4.65-14.84,2.6-9.99,4.41-20.05,6.08-29.99v.03c.15-2.87,.6-5.68,1.33-8.41v-.06l.07-.42,.34,.26h0l-.39,.14c.56-2.08,1.28-4.11,2.21-6.04,.47-.96,.99-1.89,1.5-2.83,.56-.91,1.06-1.84,1.68-2.71,1.14-1.79,2.47-3.45,3.83-5.06,1.42-1.56,2.89-3.07,4.51-4.41,3.21-2.71,6.83-4.88,10.67-6.45,3.85-1.53,7.87-2.59,11.96-2.93,2.05-.17,4.1-.08,6.11,.1,1.01,.09,2.01,.17,3.01,.26,1,.08,2.01,.12,3.01,.25,4.01,.49,7.93,1.89,11.13,4.31,1.61,1.2,2.96,2.66,4.33,4.08,1.35,1.44,2.61,2.95,3.77,4.53,2.33,3.14,4.12,6.68,5.18,10.39l-.34-.13h0l.23-.13,.1,.24c3.05,7.14,6.07,14.18,8.14,21.42,2.06,7.19,3.19,14.72,1.82,21.9-.67,3.53-1.72,7.06-1.02,10.51,.37,1.69,1.18,3.26,2.19,4.67,1,1.42,2.15,2.73,3.22,4.11,1.06,1.38,2.07,2.83,2.64,4.5,.31,.82,.45,1.7,.53,2.56,.05,.87-.04,1.74-.19,2.59-.7,3.41-2.58,6.3-3.91,9.31l-.12-.28c2.31,.84,4.52,1.64,6.69,2.43,.54,.21,1.08,.37,1.63,.56,.55,.19,1.07,.42,1.59,.67,1.03,.5,2,1.1,2.9,1.76h-.22c4.37-2.8,9-4.84,13.38-7.09,4.41-2.2,8.71-4.35,12.92-6.45,8.42-4.2,16.44-8.21,24.1-12.04l.25-.12v.28c-.01,20.5-.03,38.17-.04,53.48v.04l-.02,.03c-.45,.74-.8,1.3-1.15,1.86l.02-.1c.45,2,.8,3.52,1.14,5.02h0v.03c0,7.06-.01,12.65-.02,17.85h0c-1.42,10.79-2.96,19.73-4.48,26.93-1.52,7.2-3.02,12.66-4.21,16.52l-.05-.06c3.13-.7,5.27-1.52,6.64-2.06,.69-.27,1.18-.49,1.51-.63l.48-.21s-.6,.31-1.97,.88c-1.37,.56-3.51,1.39-6.64,2.1l-.08,.02,.02-.08c1.17-3.87,2.65-9.33,4.14-16.53,1.5-7.2,3.01-16.14,4.41-26.92h0c0-5.18,0-10.78-.02-17.84v.03c-.34-1.5-.69-3.03-1.14-5.02v-.05l.02-.05c.34-.56,.69-1.12,1.14-1.87l-.02,.07c-.01-15.31-.02-32.98-.04-53.48l.25,.15c-7.66,3.84-15.68,7.85-24.09,12.06-4.21,2.11-8.51,4.26-12.92,6.47-4.38,2.26-9,4.3-13.34,7.08l-.11,.07-.11-.08c-.89-.65-1.84-1.24-2.84-1.72-.5-.24-1.02-.46-1.55-.65-.53-.18-1.09-.34-1.62-.55-2.17-.78-4.39-1.59-6.7-2.42l-.21-.07,.09-.2c1.35-3.04,3.21-5.92,3.88-9.22,.15-.82,.23-1.65,.19-2.49-.07-.83-.2-1.66-.5-2.45-.54-1.6-1.53-3.02-2.58-4.38-1.05-1.36-2.21-2.68-3.23-4.12-1.03-1.43-1.88-3.05-2.26-4.83-.37-1.78-.27-3.61,0-5.38,.26-1.78,.69-3.53,1.02-5.3,1.34-7.09,.23-14.54-1.83-21.69-2.06-7.19-5.08-14.22-8.13-21.36l.33,.11h0l-.26,.15-.08-.28c-1.05-3.68-2.81-7.14-5.11-10.25-1.14-1.56-2.39-3.06-3.73-4.48-1.36-1.41-2.7-2.86-4.27-4.02-3.12-2.36-6.96-3.74-10.9-4.22-.98-.13-1.98-.17-2.99-.25-1-.09-2.01-.17-3.01-.26-2.01-.18-4.02-.26-6.03-.1-4.02,.33-8.01,1.39-11.81,2.9-3.79,1.55-7.37,3.7-10.53,6.38-1.6,1.32-3.06,2.82-4.46,4.36-1.35,1.59-2.66,3.23-3.79,5.01-.61,.86-1.1,1.79-1.66,2.69-.5,.93-1.02,1.85-1.48,2.8-.91,1.9-1.62,3.9-2.18,5.95l-.1,.36-.3-.23h0l.4-.17v.09h-.02v.03c-.72,2.7-1.17,5.48-1.32,8.31h0v.03c-1.67,9.95-3.48,20.02-6.08,30.04-1.29,5.01-2.82,10-4.67,14.89-1.83,4.91-3.93,9.72-5.76,14.67-1.86,4.94-3.42,10-4.88,15.12-1.47,5.11-2.82,10.31-3.38,15.64-.65,5.32,.09,10.73-.38,16.18-.24,2.72-.89,5.45-2.1,7.92-1.14,2.48-2.57,4.83-3.3,7.43-.23,.8-.36,1.61-.41,2.43-.02,.82,.04,1.64,.24,2.43,.37,1.59,1.28,3.01,2.45,4.1,2.39,2.21,5.56,3.27,8.54,3.98l.18,.04,.02,.18c.81,6.11,1.62,12.2,2.42,18.24,.4,3.02,.79,6.04,1.06,9.07,.15,1.51,.21,3.04,.27,4.53,.09,1.5,.27,2.98,.51,4.46,1.03,5.87,3.11,11.58,6.49,16.35,1.69,2.37,3.75,4.49,6.12,6.11,2.39,1.61,5.07,2.75,7.88,3.22l.32,.05-.13,.3c-2.55,6.03-5.09,12.01-7.6,17.95-1.27,2.97-2.49,5.94-3.78,8.86-1.31,2.91-2.54,5.85-3.68,8.8-4.54,11.81-8.01,23.8-10.4,35.66l-.2-.29c1.37,.21,2.73,.43,3.95,.61l.26,.04-.05,.26c-1.76,8.35-3.49,16.6-5.07,24.1l-.24-.29c47.31,.01,91.09,.03,130.12,.04l-.2,.23c-1.21-7.63-2.39-15.09-3.45-21.83l-.04-.22h.23c2.4,0,4.77,0,6.84,0l-.18,.13c.15-.65,.06-1.44,.02-2.17-.06-.74-.13-1.48-.23-2.22-.17-1.48-.39-2.94-.61-4.4-.44-2.91-.93-5.78-1.42-8.62-.99-5.67-2.02-11.18-3.03-16.55-1.02-5.36-2-10.57-2.96-15.63-.47-2.53-.94-5.02-1.39-7.47-.43-2.46-.91-4.84-1.16-7.28h.15s-.06-.05-.12-.06c-.04,0-.01,0-.02-.01v-.1l.03-.16,.02-.32,.03-.65c.01-.43,.03-.86,.04-1.29,.03-.86,.05-1.7,.07-2.54,.04-1.67,.08-3.27,.12-4.78v-.25l.22,.13c8.47,5.22,17.43,8.09,25.75,9.22,8.34,1.16,16.04,.61,22.63-.7l-.08,.1c.07-26.41,.1-40.08,.1-40.79Z" style="fill:#455a64;"></path></g></g></g></g><g><g><path d="M142.32,153.4c-8.73,55.6-14.2,52.72-22.39,79.78-2.23,7.36-4.47,14.82-4.76,22.5-.23,6.22,.79,12.68-1.38,18.51-1.72,4.61-5.42,8.91-4.64,13.77,1.09,6.75,9.51,9,16.31,9.79l70.23-2.85,8.94-95.45-62.31-46.05Z" style="fill:#263238;"></path><path d="M216.91,146.89c5.69,12.95,12.89,28.75,10.36,42.66-.72,3.95-2.1,8.03-.95,11.88,1.59,5.34,7.64,8.66,8.54,14.16,.79,4.81-2.67,9.15-4.53,13.66-2.52,6.09-2.17,12.95-1.38,19.5,.79,6.54,1.98,13.16,1,19.68-.98,6.52-4.64,13.09-10.79,15.48l-26.66-12.13,5.07-113.16,19.34-11.71Z" style="fill:#263238;"></path><g><path d="M144.86,146.86c6.15-11.8,16.03-19.91,29.02-22.84,7.33-1.65,10.69-.76,16.28-.43,5.59,.33,10.96,2.17,15.06,5.99,4.86,4.54,9.26,9.84,11.31,16.17,2.11,6.5,4.24,13.04,5.13,19.81,.89,6.77,.47,13.87-2.33,20.1l-16.37,6.48c-9.31,2.27-18.76,4.56-28.34,4.32-9.58-.24-19.48-3.3-26.04-10.28-9.11-9.7-9.88-27.52-3.73-39.32Z" style="fill:#263238;"></path><path d="M159.95,143.6l20.77-13.7,6.06-.54c13.32-2.72,25.55,10.03,27.88,20.78,2.59,11.94,5.28,26.63,5.22,35.84-.13,18.53-14.97,23.16-14.97,23.16l4.04,16.03,3.07,6.05,9.54,37.71-16.63,25.03-33.05-61.42-2.07-16.31-14.57-65.31c-.57-3.29,1.48-6.47,4.72-7.32Z" style="fill:#ffbf9d;"></path><path d="M192.38,187.38c-.07-.96,.28-1.89,.82-2.6,1.09-1.41,3-1.92,4.63-1.24,1.62,.68,2.85,2.52,2.98,4.44h0c-.57,1.26-1.63,2.25-2.96,2.65-.21,.06-.41,.11-.63,.15-1.03,.19-2.14,.06-3.08-.53-.94-.59-1.67-1.68-1.76-2.87Z" style="fill:#ff9a6c;"></path><path d="M212.99,166.45c.23,1.22-.61,2.42-1.88,2.68-1.27,.26-2.48-.51-2.71-1.73-.23-1.22,.62-2.42,1.88-2.68,1.27-.26,2.49,.51,2.71,1.73Z" style="fill:#263238;"></path><path d="M211.84,156.97c-.24,.35-2.2-.69-4.7-.3-2.5,.35-4.14,1.91-4.46,1.65-.15-.12,.06-.71,.77-1.41,.7-.7,1.95-1.46,3.51-1.69,1.56-.23,2.95,.15,3.8,.62,.86,.47,1.2,.98,1.08,1.14Z" style="fill:#263238;"></path><path d="M200,179.63c-.03-.14,1.48-.64,3.95-1.35,.63-.16,1.21-.38,1.25-.83,.08-.48-.29-1.13-.71-1.82-.83-1.45-1.71-2.97-2.62-4.57-3.67-6.52-6.43-11.91-6.17-12.06,.26-.15,3.45,5.02,7.12,11.53,.89,1.61,1.74,3.14,2.55,4.61,.35,.69,.89,1.45,.71,2.45-.1,.5-.52,.92-.91,1.09-.39,.19-.75,.25-1.06,.31-2.51,.52-4.08,.77-4.11,.63Z" style="fill:#263238;"></path><path d="M204.92,209.12s-12.06,2.63-25.23-2.79c0,0,8.36,11.56,26.23,7.12l-1-4.33Z" style="fill:#ff9a6c;"></path><path d="M192.91,182.48c.4-.08,.82,2.62,3.43,4.2,2.61,1.58,5.46,.84,5.53,1.21,.06,.16-.56,.62-1.78,.84-1.19,.22-3,.1-4.6-.86-1.6-.96-2.44-2.45-2.7-3.54-.28-1.12-.07-1.83,.11-1.85Z" style="fill:#263238;"></path><path d="M209.2,148.5c-.33,.67-2.3,.56-4.51,1.08-2.22,.45-3.97,1.39-4.55,.92-.26-.23-.11-.87,.58-1.6,.67-.73,1.91-1.49,3.43-1.83,1.52-.33,2.96-.16,3.87,.22,.92,.38,1.32,.89,1.18,1.21Z" style="fill:#263238;"></path><path d="M186.02,170.82c.19,1.23,1.38,2.08,2.67,1.9,1.28-.17,2.17-1.3,1.98-2.53-.19-1.23-1.38-2.08-2.67-1.91-1.28,.17-2.17,1.31-1.99,2.53Z" style="fill:#263238;"></path><path d="M178.21,162.97c.34,.25,1.85-1.38,4.33-1.84,2.47-.5,4.54,.43,4.75,.08,.11-.16-.29-.65-1.19-1.07-.89-.43-2.33-.73-3.87-.43-1.55,.3-2.74,1.12-3.38,1.84-.65,.73-.81,1.32-.64,1.43Z" style="fill:#263238;"></path><path d="M178.04,154.75c.6,.47,2.4-.48,4.7-.94,2.28-.54,4.33-.43,4.66-1.1,.14-.32-.27-.83-1.23-1.2-.94-.37-2.43-.54-4-.2-1.57,.35-2.85,1.12-3.54,1.85-.7,.73-.86,1.36-.59,1.6Z" style="fill:#263238;"></path><path d="M164.57,180.34c-.21-1.35-2.25-4.29-3.61-4.29-3.64-.02-10.01,1.24-8.7,10.27,1.79,12.35,13.83,8.01,13.8,7.65-.02-.28-.77-8.98-1.49-13.63Z" style="fill:#ffbf9d;"></path><path d="M161.99,189.96c-.06-.03-.19,.18-.53,.4-.33,.21-.93,.41-1.61,.27-1.37-.29-2.77-2.2-3.16-4.42-.19-1.12-.11-2.22,.16-3.17,.25-.96,.74-1.67,1.38-1.89,.63-.25,1.15,.08,1.36,.4,.22,.32,.17,.58,.24,.59,.04,.03,.24-.24,.06-.74-.09-.24-.27-.51-.6-.7-.33-.2-.78-.26-1.24-.14-.94,.2-1.67,1.2-1.97,2.24-.35,1.05-.47,2.29-.25,3.55,.44,2.48,2.05,4.62,3.91,4.88,.9,.1,1.59-.27,1.92-.61,.34-.36,.36-.65,.32-.66Z" style="fill:#ff9a6c;"></path><path d="M160.47,176.19l3.77,2.57c10.72-15.59,30.2-53.09,29.14-50.88,0,0-9.96-1.86-19.56,1.9-9.6,3.77-27.45,12.67-24.71,24.34,2.73,11.67,11.36,22.06,11.36,22.06Z" style="fill:#263238;"></path></g></g><path d="M277.35,265.55s.11-8.3,.85-9.96c.74-1.66,16.4-5.49,16.4-5.49l5.69,4.32-5.69,9.01,1.7,7.23-18.94-5.11Z" style="fill:#ffbf9d;"></path><g><g><path d="M297.76,271.05l-24.02-6.48-4.78,21.74-11.99-32.78c-5.59-15.67-13.24-21.07-18.52-22.53l-1.91,2.48,5.05,86.71,16.01,19.92c7.49,9.31,22.6,7.48,26.93-3.66,8.99-23.14,12.05-58.36,13.22-65.4Z" style="fill:#455a64;"></path><path d="M119.16,455.23H253.16l-13.91-85.22c-24.45,5.03-54.17,1.26-85.65-5.48,0,0-14.77,12.95-19.67,28.15-4.89,15.2-14.76,62.55-14.76,62.55Z" style="fill:#263238;"></path><g><path d="M240.96,252.1s.1,.43,.2,1.26c.1,.93,.23,2.13,.39,3.62,.35,3.15,.66,7.72,.96,13.37,.58,11.31,.57,26.96,0,44.21-.56,17.26-1.02,32.87-.87,44.17,.06,5.65,.17,10.22,.31,13.38,.05,1.5,.09,2.71,.12,3.64,.02,.83,0,1.27-.03,1.27-.03,0-.09-.43-.17-1.26-.08-.93-.18-2.14-.3-3.63-.26-3.15-.48-7.73-.63-13.39-.33-11.32,.02-26.96,.58-44.21,.57-17.24,.69-32.86,.29-44.15-.21-5.65-.42-10.22-.64-13.37-.08-1.5-.15-2.7-.2-3.64-.04-.83-.04-1.27,0-1.27Z" style="fill:#263238;"></path><g><path d="M150.79,258.37l13.43,106.16,72.65,5.21,4.7,2.4-4.8-87.72-25.22-59.97-2.53-1.54s-5.43,7.47-14.38,8.26c-9.21,.81-18.29,.68-26.78-13.93h0l-17.07,41.14Z" style="fill:#fff;"></path><g><path d="M135.34,384.86l15.45-35.43-14.54-113.99,22.79-9.19,9.16-10.71s10.14,29.61,12.61,39.86c2.47,10.25,9.54,32.78,12.7,52.97,3.16,20.2-.93,58.44-4.07,71.36-3.14,12.92-14.39,59.04-14.39,59.04l-54.73-8.26s4.4-23.23,15.03-45.65Z" style="fill:#455a64;"></path><path d="M207.55,216.6l7.89,6.3,23.02,8.1s6.78,26.56,7.05,34.74c.27,8.18-.13,99,.01,103.27,.14,4.27,12.43,60.8,11.12,64.4h-15.78s-4.59-42.37-5.15-59.45c-.56-17.08,1.88-60.37-2.36-80.89-4.24-20.52-24.35-69.64-24.35-69.64l-1.45-6.82Z" style="fill:#455a64;"></path><path d="M236.41,383.48s-.03-.14-.05-.42c-.01-.33-.03-.74-.05-1.25-.02-1.17-.05-2.77-.09-4.79-.04-4.24-.1-10.24-.18-17.63-.14-14.88-.22-35.45-.59-58.15-.07-2.84-.12-5.64-.23-8.4-.07-2.73-.47-5.43-.76-8.1-.6-5.32-1.2-10.45-1.86-15.32-.66-4.87-1.37-9.49-2.24-13.76-.86-4.27-2.24-8.09-3.7-11.5-2.94-6.81-5.92-12.06-7.98-15.67-1.02-1.74-1.83-3.12-2.43-4.13-.26-.43-.46-.79-.63-1.07-.14-.24-.21-.37-.19-.38,.01,0,.11,.1,.27,.33,.19,.28,.42,.61,.71,1.03,.61,.91,1.49,2.27,2.58,4.05,2.16,3.56,5.23,8.77,8.26,15.6,1.5,3.41,2.94,7.29,3.85,11.6,.91,4.3,1.65,8.92,2.34,13.8,.68,4.88,1.3,10.01,1.91,15.33,.3,2.65,.7,5.36,.78,8.16,.12,2.77,.17,5.58,.24,8.42,.38,22.72,.35,43.28,.32,58.17-.05,7.38-.08,13.39-.11,17.63-.03,2.02-.06,3.62-.08,4.79-.02,.5-.03,.91-.04,1.25-.02,.28-.03,.42-.05,.42Z" style="fill:#263238;"></path></g></g><path d="M193.12,350.71s-.12-.43-.24-1.27c-.12-.84-.27-2.08-.44-3.68-.31-3.2-.67-7.84-.76-13.6-.05-2.88-.03-6.03,.09-9.41,.03-3.32-.72-6.86-1.68-10.51-2.1-7.28-5.31-15.04-8.95-23.05-3.69-8-7.49-15.5-11-22.3-1.71-3.41-3.55-6.58-4.71-9.82-1.16-3.21-1.95-6.28-2.62-9.08-1.33-5.61-2.1-10.2-2.61-13.38-.25-1.59-.42-2.83-.52-3.67-.1-.84-.14-1.28-.11-1.29,.03,0,.13,.43,.29,1.26,.17,.91,.4,2.12,.69,3.64,.62,3.15,1.48,7.72,2.88,13.29,.71,2.78,1.53,5.82,2.71,8.98,1.15,3.15,3.01,6.3,4.75,9.71,3.56,6.78,7.38,14.28,11.08,22.3,3.65,8.03,6.85,15.83,8.93,23.2,.95,3.7,1.69,7.29,1.62,10.75-.15,3.37-.21,6.51-.2,9.38,0,5.74,.27,10.37,.47,13.58,.11,1.53,.2,2.76,.26,3.69,.06,.84,.09,1.29,.06,1.29Z" style="fill:#263238;"></path><path d="M242.29,247.12s.25,.36,.64,1.08c.41,.72,.93,1.81,1.57,3.24,1.26,2.86,2.78,7.15,3.94,12.63,1.16,5.47,1.89,12.13,1.9,19.53-.03,7.39-.6,15.49-1.34,23.96-1.57,16.94-2.56,32.29-2.89,43.43-.2,5.57-.31,10.07-.37,13.19-.04,1.48-.08,2.68-.11,3.59-.03,.82-.07,1.25-.1,1.25-.03,0-.06-.43-.08-1.25-.02-.91-.04-2.1-.06-3.59-.04-3.12-.03-7.63,.08-13.2,.17-11.15,1.06-26.55,2.63-43.49,.74-8.47,1.34-16.54,1.41-23.89,.03-7.34-.62-13.95-1.69-19.4-1.07-5.45-2.48-9.74-3.63-12.62-.59-1.44-1.06-2.55-1.41-3.29-.34-.75-.5-1.15-.47-1.16Z" style="fill:#263238;"></path></g></g><g><polygon points="206.61 325.35 212.25 324.9 211.62 350.49 206.13 351.63 206.61 325.35" style="fill:#ebebeb;"></polygon><g><path d="M136.24,235.44s-13.74,4.73-16.6,23.58c-3.11,20.53,4.99,56.33,5.33,69.31,.25,9.59,6.54,31.69,27.01,30.93,28.64-1.07,54.96-7.33,54.96-7.33l-.09-26.88-48.67,.03-4.83-45.61" style="fill:#455a64;"></path><path d="M153.35,279.47s.05,.27,.12,.79c.07,.55,.16,1.33,.28,2.34,.23,2.08,.58,5.12,1.02,9.03,.86,7.88,2.1,19.27,3.64,33.43l-.23-.2c13.67-.03,30.24-.06,48.67-.1h.3v.3c.04,8.53,.07,17.54,.11,26.88v.25l-.24,.05c-12.3,2.76-25.58,4.91-39.35,6.28-5.55,.52-11.04,.91-16.48,1.07-2.74,.02-5.48-.37-8.04-1.26-2.55-.91-4.93-2.26-6.95-3.99-4.09-3.44-6.84-8.07-8.69-12.78-1.83-4.74-2.82-9.71-2.91-14.55-.29-4.79-.99-9.45-1.59-13.98-.63-4.53-1.23-8.92-1.82-13.17-1.12-8.51-2.01-16.46-2.32-23.77-.31-7.29-.12-13.95,1.1-19.66,.12-.72,.33-1.4,.53-2.08,.2-.67,.37-1.34,.59-1.98,.51-1.25,.9-2.5,1.5-3.6,1.04-2.27,2.37-4.14,3.62-5.76,2.61-3.16,5.22-5.09,7.07-6.16,.92-.55,1.67-.9,2.18-1.12,.51-.22,.78-.29,.78-.29,0,0-.26,.11-.75,.35-.49,.24-1.23,.6-2.14,1.17-1.83,1.1-4.38,3.05-6.94,6.21-1.22,1.62-2.53,3.48-3.54,5.74-.59,1.09-.97,2.33-1.47,3.57-.21,.63-.38,1.3-.57,1.97-.19,.67-.4,1.35-.51,2.06-1.17,5.66-1.33,12.29-.99,19.56,.34,7.28,1.26,15.22,2.4,23.72,.6,4.25,1.22,8.64,1.85,13.16,.62,4.53,1.32,9.18,1.62,14.02,.09,4.81,1.07,9.68,2.89,14.36,1.83,4.64,4.53,9.17,8.52,12.52,1.97,1.69,4.28,2.98,6.75,3.87,2.48,.87,5.15,1.24,7.82,1.22,5.39-.16,10.89-.55,16.42-1.07,13.74-1.36,27.02-3.51,39.27-6.24l-.24,.31c-.03-9.34-.05-18.35-.07-26.88l.3,.3c-18.44-.01-35-.03-48.67-.04h-.21l-.02-.2c-1.46-14.17-2.63-25.57-3.44-33.45-.39-3.92-.69-6.95-.9-9.04-.09-1.02-.17-1.8-.22-2.35-.05-.53-.05-.8-.05-.8Z" style="fill:#263238;"></path></g><path d="M153.11,337.95c-.15,.04-.5-3.3,1-7.04,1.46-3.76,3.99-5.96,4.08-5.83,.16,.13-2.07,2.45-3.47,6.07-1.44,3.6-1.4,6.81-1.61,6.8Z" style="fill:#263238;"></path><path d="M148.1,265.47c-.1,.02-.35-1.24-.88-3.24-.52-2-1.37-4.72-2.62-7.61-1.26-2.88-2.67-5.36-3.77-7.11-1.1-1.75-1.85-2.79-1.77-2.85,.06-.05,.94,.9,2.15,2.59,1.21,1.7,2.71,4.18,3.99,7.1,1.27,2.93,2.06,5.72,2.47,7.76,.42,2.05,.5,3.34,.43,3.35Z" style="fill:#263238;"></path></g></g><g><g><path d="M278.26,368.85c-24.12-1.21-46.43-14.49-57.25-36.79-16.16-33.29-.68-74.28,34.49-91.36l69.34-33.67,11.96,24.65-69.34,33.67c-20.82,10.11-29.97,34.37-20.41,54.07,4.63,9.55,12.91,16.61,23.32,19.9,10.41,3.29,21.69,2.4,31.77-2.5l68.33-33.17,11.96,24.65-68.33,33.17c-11.61,5.64-23.95,7.98-35.84,7.39Z" style="fill:#8988E3;"></path><g><polygon points="337.38 319.71 349.42 344.32 382.43 328.29 370.47 303.65 337.38 319.71" style="fill:#fff;"></polygon><polygon points="302.46 248.35 336.79 231.67 324.83 207.03 290.42 223.74 302.46 248.35" style="fill:#fff;"></polygon></g><g style="opacity:.3;"><path d="M278.26,368.85c-24.12-1.21-46.43-14.49-57.25-36.79-16.16-33.29-.68-74.28,34.49-91.36l69.34-33.67,11.96,24.65-69.34,33.67c-20.82,10.11-29.97,34.37-20.41,54.07,4.63,9.55,12.91,16.61,23.32,19.9,10.41,3.29,21.69,2.4,31.77-2.5l68.33-33.17,11.96,24.65-68.33,33.17c-11.61,5.64-23.95,7.98-35.84,7.39Z"></path></g></g><g><path d="M273.09,358.29c-24.12-1.21-46.43-14.49-57.25-36.79-16.16-33.29-.68-74.28,34.49-91.36l69.34-33.67,11.96,24.65-69.34,33.67c-20.82,10.11-29.97,34.37-20.41,54.07,4.63,9.55,12.91,16.61,23.32,19.9,10.41,3.29,21.69,2.4,31.77-2.5l68.33-33.17,11.96,24.65-68.33,33.17c-11.61,5.64-23.95,7.98-35.84,7.39Z" style="fill:#8988E3;"></path><g><polygon points="332.21 309.15 344.26 333.76 377.3 317.72 365.35 293.07 332.21 309.15" style="fill:#fff;"></polygon><polygon points="297.29 237.79 331.63 221.11 319.67 196.47 285.25 213.18 297.29 237.79" style="fill:#fff;"></polygon></g></g><path d="M298.15,250.44s.06-.04,.18-.11l.54-.28c.51-.26,1.21-.61,2.11-1.07,1.88-.93,4.57-2.26,7.95-3.94,6.85-3.35,16.49-8.07,27.77-13.59l-.11,.32c-3.3-6.77-6.92-14.21-10.71-21.98-2.21-4.55-4.37-8.99-6.42-13.21l.34,.12c-13.58,6.56-25.44,12.28-33.94,16.39-4.22,2.02-7.61,3.63-9.97,4.76-1.15,.54-2.05,.96-2.69,1.26-.29,.13-.52,.23-.7,.31-.16,.07-.24,.1-.24,.09,0,0,.07-.05,.22-.13l.68-.36c.63-.32,1.52-.76,2.65-1.33,2.35-1.16,5.71-2.82,9.91-4.9,8.48-4.14,20.32-9.93,33.87-16.55l.23-.11,.11,.23c2.06,4.23,4.22,8.66,6.43,13.21,3.78,7.78,7.39,15.22,10.68,22l.11,.22-.22,.11c-11.32,5.46-20.99,10.11-27.86,13.42-3.41,1.62-6.12,2.91-8.01,3.81-.91,.42-1.63,.76-2.14,1l-.56,.25c-.13,.05-.19,.08-.19,.07Z" style="fill:#263238;"></path><path d="M331.63,221.11c.06,.13-9.77,5.04-21.95,10.96-12.19,5.93-22.12,10.62-22.18,10.49-.06-.13,9.77-5.04,21.96-10.96,12.19-5.92,22.12-10.62,22.18-10.49Z" style="fill:#263238;"></path><path d="M344.39,346.76s.06-.04,.17-.11l.53-.28c.5-.25,1.19-.6,2.07-1.05,1.85-.92,4.5-2.23,7.83-3.88,6.75-3.3,16.23-7.94,27.33-13.37l-.11,.33c-3.11-6.41-6.52-13.43-10.09-20.78-2.43-5.01-4.78-9.88-7-14.45l.34,.12c-12.77,6.16-23.87,11.51-31.81,15.34-3.94,1.88-7.1,3.38-9.3,4.43-1.07,.5-1.9,.89-2.5,1.17-.27,.12-.48,.22-.65,.29-.15,.06-.22,.09-.23,.09,0,0,.07-.05,.21-.13,.16-.09,.37-.19,.63-.33l2.46-1.24c2.19-1.08,5.32-2.63,9.24-4.57,7.92-3.87,18.99-9.28,31.73-15.5l.23-.11,.11,.23c2.22,4.56,4.58,9.43,7.01,14.44,3.55,7.35,6.96,14.38,10.06,20.79l.11,.22-.22,.11c-11.13,5.36-20.64,9.94-27.41,13.2-3.35,1.59-6.02,2.86-7.89,3.75-.9,.42-1.6,.74-2.11,.98l-.55,.24c-.12,.05-.19,.08-.19,.07Z" style="fill:#263238;"></path><path d="M377.26,317.74c.06,.13-8.99,4.65-20.21,10.1-11.23,5.45-20.38,9.76-20.44,9.63-.06-.13,8.99-4.65,20.21-10.1,11.22-5.45,20.38-9.76,20.44-9.63Z" style="fill:#263238;"></path></g><g><g><path d="M307.99,246.29c.56,.96,1.11,1.26,1.08,2.37-.03,1.11-.54,2.24-1.46,2.85-.93,.61-2.28,.58-3.07-.19,.5,1.64-.15,3.55-1.54,4.55-.83,.6-1.9,.84-2.92,.73-.51-.06-1-.21-1.46-.44-.16-.08-.37-.16-.5-.3-.06-.07-.1-.15-.13-.23-.15-.39-.22-.8-.4-1.18-.07-.14-.14-.29-.21-.43-.35-.63-.8-1.21-1.3-1.72-.23-.24-.54-.44-.73-.71-.13-.18-.17-.41-.26-.61-.62-1.26-1.85-2.19-2.91-3.06-1.19-.98-2.41-2.08-2.87-3.56-.46-1.48,.2-3.41,1.7-3.78-.85-.49-1.1-1.72-.66-2.6,.44-.88,1.43-1.4,2.41-1.47,.98-.07,1.96,.24,2.83,.69-.91-.71-.9-2.22-.15-3.1,.75-.88,2.03-1.17,3.17-.98,1.14,.19,2.17,.79,3.12,1.45,.95,.66,4.08,2.61,5.11,3.12l3.28,2.69c1.91,1.56,1.69,4.7-.56,5.73-.53,.24-1.07,.32-1.57,.17Z" style="fill:#ffbf9d;"></path><path d="M296.64,259.76c-.6,.74-1.44,1.39-2.39,1.4-1.13,0-1.66-.25-2.45-1.06,.57-1.19,.84-2.07,1.26-3.44,.08-.27,.05-.53,.08-.81,.08-.74-1.08-1.63-1.45-2.28-.64-1.13-.05-2.7,1.09-3.32,1.14-.62,1.95-.49,2.96,.32,1.01,.81,2.21,2.7,2.41,3.98,.3,2-.23,3.64-1.51,5.21Z" style="fill:#ffbf9d;"></path><path d="M304.83,251.55c.07-.09-2.97-2.61-6.79-5.64-3.82-3.03-6.97-5.42-7.04-5.33-.07,.09,2.97,2.61,6.79,5.64,3.82,3.03,6.97,5.41,7.04,5.33Z" style="fill:#ff9a6c;"></path><path d="M308.21,246.44s-.59-.68-1.66-1.65c-1.08-.97-2.61-2.26-4.39-3.57-1.78-1.31-3.46-2.4-4.71-3.14-1.24-.74-2.05-1.15-2.07-1.1-.03,.05,.72,.54,1.92,1.34,1.2,.8,2.85,1.92,4.62,3.23,1.77,1.31,3.33,2.55,4.45,3.46,1.12,.91,1.81,1.48,1.85,1.44Z" style="fill:#ff9a6c;"></path></g><path d="M310.54,240.47s-.49-.44-1.34-1.08c-.86-.64-2.06-1.5-3.42-2.42-1.36-.92-2.59-1.72-3.49-2.31-.9-.58-1.46-.94-1.47-.91-.02,.02,.51,.42,1.39,1.03,.88,.62,2.1,1.44,3.45,2.36,1.35,.91,2.57,1.75,3.44,2.36,.88,.61,1.42,.99,1.44,.97Z" style="fill:#ff9a6c;"></path><path d="M297.43,257.92s.49-.38,.72-1.31c.25-.91,.12-2.3-.58-3.55-.33-.63-.73-1.17-1.11-1.65-.39-.47-.73-.89-1.11-1.19-.38-.3-.79-.4-1.05-.4-.27,0-.41,.09-.4,.11,0,.06,.62-.1,1.27,.5,.32,.29,.64,.73,1,1.2,.36,.48,.73,1.01,1.05,1.61,.66,1.19,.81,2.44,.65,3.31-.15,.87-.51,1.33-.45,1.37Z" style="fill:#ff9a6c;"></path></g><g><path d="M258.21,319.11c-.42-2.32-3.5-1.97-4.49-1.33-.99,.64-7.8,2.58-9.3,3.17-1.5,.59-1.84-.27-2.12-1.28-.27-1.01-.17-1.17,3.8-2.74,3.97-1.57,4.23-1.54,4.62-3.06,.39-1.52-1.59-3.72-3.59-3.43-2,.29-13.49,5.31-13.49,5.31l4.13-5.94c.7-.92,2.44-3.75,.87-5.31-.9-.9-2.65,.5-3.56,1.38l-5.3,4.18s-4.06,3.39-7.26,5.65c-3.21,2.26-7.09,10.06-7.09,10.06h-3.12l-.61,21.56,8.95-1.99s6.71,.95,11.8-.93c5.09-1.88,14.99-8.89,16.77-10.34,1.79-1.45,1.69-3.27,1.69-3.27,3.67-1.7,1.61-5.35,1.61-5.35,0,0,.39-.28,2.04-.81,1.65-.53,4.07-3.22,3.65-5.53Z" style="fill:#ffbf9d;"></path><path d="M244.37,327.95c.03,.11,1.88-.37,4.13-1.08,2.25-.7,4.04-1.36,4.01-1.47-.03-.11-1.88,.37-4.13,1.08-2.25,.7-4.04,1.36-4,1.47Z" style="fill:#ff9a6c;"></path><path d="M242.06,334.32c.05,.03,.32-.48,1.12-.85,.79-.36,2-.7,3.3-1.13,2.61-.82,4.74-1.49,4.71-1.61-.03-.1-2.21,.39-4.83,1.22-1.31,.44-2.49,.81-3.31,1.27-.84,.47-1.04,1.1-.98,1.11Z" style="fill:#ff9a6c;"></path></g><path d="M265.99,314.33s-.05-.44-.04-1.22c0-.79,.04-1.92,.11-3.33,.13-2.81,.43-6.68,.93-10.94,.51-4.26,1.14-8.1,1.67-10.86,.26-1.38,.5-2.49,.68-3.26,.18-.77,.29-1.19,.33-1.18,.04,0-.01,.44-.13,1.22-.14,.88-.31,1.98-.51,3.28-.44,2.77-1,6.61-1.51,10.86-.51,4.25-.85,8.11-1.08,10.91-.11,1.31-.2,2.42-.27,3.31-.07,.78-.12,1.21-.16,1.21Z" style="fill:#263238;"></path><path d="M254.88,455.23c0,.14-30.88,.26-68.96,.26s-68.97-.12-68.97-.26,30.87-.26,68.97-.26,68.96,.12,68.96,.26Z" style="fill:#455a64;"></path></g></g></g><g id="freepik--Quality--inject-62"><g><g><circle cx="278.63" cy="129.23" r="34.92" transform="translate(-21.07 196.42) rotate(-37.52)" style="fill:#fff;"></circle><path d="M313.55,129.23s-.03-.19-.06-.57c-.03-.39-.06-.94-.11-1.66-.02-.37-.05-.77-.07-1.22-.05-.45-.14-.93-.22-1.46-.17-1.05-.33-2.27-.73-3.6-.62-2.7-1.88-5.88-3.87-9.26-2.01-3.36-4.9-6.87-8.84-9.85-3.93-2.95-8.89-5.46-14.61-6.48-1.43-.2-2.88-.5-4.39-.51-.75-.03-1.5-.1-2.26-.09-.76,.04-1.52,.08-2.3,.12-.38,.03-.77,.02-1.16,.08l-1.16,.18c-.77,.13-1.56,.22-2.33,.38-1.53,.42-3.12,.73-4.62,1.36-1.56,.5-3.02,1.27-4.52,1.99-.73,.4-1.43,.86-2.16,1.29-.74,.41-1.41,.92-2.09,1.44-1.41,.97-2.64,2.18-3.93,3.34-1.17,1.29-2.39,2.55-3.4,4.02-2.06,2.86-3.86,6.05-4.96,9.55-1.13,3.48-1.74,7.17-1.79,10.94,.05,3.76,.66,7.46,1.79,10.94,1.09,3.5,2.89,6.69,4.95,9.55,1.01,1.47,2.23,2.73,3.4,4.02,1.29,1.17,2.52,2.38,3.93,3.34,.68,.52,1.35,1.03,2.09,1.44,.72,.43,1.43,.89,2.16,1.29,1.5,.72,2.97,1.49,4.52,1.99,1.51,.63,3.09,.94,4.62,1.36,.78,.16,1.56,.25,2.33,.38l1.16,.18c.39,.05,.77,.05,1.16,.08,.77,.04,1.54,.08,2.3,.12,.76,.01,1.51-.06,2.26-.09,1.5,0,2.95-.3,4.39-.51,5.72-1.02,10.68-3.53,14.61-6.48,3.94-2.98,6.83-6.49,8.84-9.85,1.99-3.38,3.25-6.56,3.87-9.26,.4-1.33,.56-2.55,.73-3.6,.08-.53,.18-1.01,.22-1.46,.03-.45,.05-.85,.07-1.22,.05-.71,.08-1.26,.11-1.66,.03-.37,.06-.56,.06-.56,0,0,0,.19,0,.57-.01,.39-.03,.95-.06,1.66l-.05,1.23c-.04,.45-.13,.94-.2,1.47-.15,1.06-.3,2.29-.69,3.63-.59,2.72-1.83,5.94-3.82,9.36-2,3.4-4.9,6.97-8.87,10-3.96,3-8.96,5.56-14.75,6.61-1.45,.21-2.92,.51-4.44,.53-.76,.03-1.52,.1-2.29,.09-.77-.04-1.54-.08-2.33-.11-.39-.03-.78-.02-1.17-.07l-1.17-.18c-.78-.13-1.58-.22-2.37-.38-1.55-.42-3.16-.73-4.69-1.37-1.58-.5-3.06-1.28-4.59-2.01-.74-.4-1.46-.87-2.19-1.3-.75-.42-1.44-.94-2.12-1.46-1.43-.98-2.68-2.21-3.99-3.39-1.19-1.31-2.43-2.59-3.45-4.07-2.1-2.91-3.93-6.14-5.04-9.69-1.15-3.53-1.77-7.29-1.82-11.1,.05-3.82,.67-7.57,1.82-11.1,1.11-3.55,2.94-6.78,5.04-9.69,1.02-1.48,2.27-2.77,3.45-4.07,1.31-1.18,2.56-2.41,3.99-3.39,.69-.52,1.37-1.04,2.12-1.46,.74-.44,1.45-.9,2.19-1.3,1.53-.73,3.01-1.51,4.59-2.01,1.53-.63,3.14-.95,4.69-1.37,.79-.16,1.58-.25,2.37-.38l1.17-.18c.39-.05,.78-.05,1.17-.07,.78-.04,1.56-.08,2.33-.11,.77-.01,1.53,.07,2.29,.09,1.52,.01,2.99,.32,4.44,.53,5.79,1.05,10.8,3.61,14.75,6.61,3.97,3.03,6.87,6.59,8.87,10,1.98,3.42,3.23,6.64,3.82,9.36,.39,1.34,.53,2.57,.69,3.63,.07,.53,.16,1.02,.2,1.47,.02,.45,.03,.86,.05,1.23,.02,.72,.04,1.27,.06,1.66,.01,.37,0,.57,0,.57Z" style="fill:#263238;"></path></g><g><g id="freepik--freepik--Character--inject-2--inject-62"><polygon points="278.06 151.76 283.21 178.95 287.91 170.26 296.83 175.49 287.37 149.01 278.06 151.76" style="fill:#8988E3;"></polygon><g style="opacity:.3;"><path d="M279.79,160.9c.99,.19,2.02-.13,2.74-.84,.47-.48,.78-1.14,1.37-1.47,.53-.29,1.19-.25,1.77-.09,.58,.16,1.13,.43,1.72,.58,1.17,.3,2.4,.11,3.43-.51l-1.48-4.12-6.89-.86-3.28,3.95,.63,3.36Z"></path></g><path d="M287.58,169.18s-.8-2.82-1.71-6.31c-.92-3.49-1.64-6.33-1.61-6.33,.03,0,.79,2.81,1.71,6.31,.92,3.49,1.64,6.33,1.61,6.33Z" style="fill:#263238;"></path><polygon points="278.82 153.17 273.67 180.36 268.97 171.67 260.05 176.9 269.51 150.43 278.82 153.17" style="fill:#8988E3;"></polygon><g style="opacity:.3;"><path d="M266.68,158.34s1.46,1.2,3.21,.65c1.75-.55,2.83-.67,3.78,0,.95,.67,3.5,2.86,3.5,2.86l.59-3.14-3.44-4.72-3.59,.72-2.55,.25-.95,1.8-.56,1.57Z"></path></g><path d="M308.99,128.63c0,1.95-2.49,3.63-2.86,5.47-.38,1.9,1.28,4.4,.55,6.15-.72,1.75-3.69,2.38-4.74,3.96-1.05,1.58-.5,4.54-1.85,5.89-1.35,1.35-4.31,.78-5.89,1.85-1.59,1.06-2.18,4.01-3.96,4.74-1.75,.72-4.25-.93-6.15-.55-1.85,.37-3.52,2.86-5.47,2.86s-3.63-2.49-5.48-2.86c-1.9-.38-4.4,1.28-6.15,.55-1.75-.72-2.38-3.69-3.96-4.74-1.58-1.05-4.54-.5-5.89-1.85-1.35-1.35-.78-4.31-1.85-5.89-1.06-1.59-4.01-2.18-4.74-3.96-.74-1.78,.93-4.25,.55-6.15-.37-1.85-2.86-3.52-2.86-5.47s2.49-3.63,2.86-5.48c.38-1.9-1.28-4.4-.55-6.15,.73-1.75,3.69-2.38,4.74-3.96s.5-4.54,1.85-5.89,4.31-.78,5.89-1.85c1.59-1.06,2.18-4.01,3.96-4.74,1.78-.74,4.25,.93,6.15,.55,1.85-.37,3.53-2.86,5.48-2.86s3.63,2.49,5.47,2.86c1.9,.38,4.4-1.28,6.15-.55,1.78,.74,2.38,3.69,3.96,4.74,1.58,1.05,4.54,.5,5.89,1.85,1.35,1.35,.78,4.31,1.85,5.89,1.06,1.59,4.01,2.18,4.74,3.96,.74,1.78-.93,4.25-.55,6.15,.37,1.84,2.86,3.52,2.86,5.48Z" style="fill:#8988E3;"></path><g style="opacity:.2;"><path d="M257.14,107.15l8.92,7.81,2.22-1.77-5.18-7.93s-.4,.29-1.44,.59c-.99,.29-3.93,.36-4.53,1.31Z"></path></g><g style="opacity:.2;"><path d="M267.07,100.54l4.36,10.91,2.79-.87-.93-9.46s-.48,.11-1.54-.02c-1.03-.13-3.53-1.11-4.67-.55Z"></path></g><g style="opacity:.3;"><path d="M278.69,98.25l.29,11.84,2.61,.13,2.64-9.09c-.55-.11-1.07-.33-1.54-.64-.9-.58-2.74-2.34-4.01-2.24Z"></path></g><g style="opacity:.2;"><path d="M290.07,100.49l-4.33,10.92,2.35,1.13,5.96-7.36c-.45-.38-.83-.83-1.13-1.33-.56-.91-1.53-2.99-2.85-3.36Z"></path></g><g style="opacity:.2;"><path d="M300.24,107.3l-8.07,8.41,1.8,2.42,7.88-5.26c-.26-.48-.43-1-.52-1.53-.19-1.03-.22-2.89-1.09-4.04Z"></path></g><g style="opacity:.2;"><path d="M306.61,116.79l-10.86,4.47,.9,2.78,9.45-1.03s-.06-.29,.07-1.36c.12-1.03,1.21-3.34,.45-4.86Z"></path></g><g style="opacity:.2;"><path d="M309.01,128.63l-11.84,.41-.1,2.61,9.02,2.64c.06-.38,.18-.74,.36-1.08,.67-1.26,2.56-3.03,2.56-4.59Z"></path></g><g style="opacity:.2;"><path d="M306.83,139.82l-10.9-4.25-1.1,2.38,7.42,5.87c.39-.37,.82-.7,1.29-.98,.9-.58,3.05-1.51,3.3-3.03Z"></path></g><g style="opacity:.2;"><path d="M290.79,139.65l-2.7,2.26c.21,.21,3.8,6.33,6.02,10.1,.03-.02,.06-.05,.09-.07,1.46-.98,4.06-.58,5.52-1.55l-8.93-10.74Z"></path><path d="M285.83,143.94l-4.03,1.37,1.91,10.94c.12-.04,.25-.08,.38-.1,1.9-.38,4.4,1.28,6.15,.55,.24-.1,.46-.24,.66-.41l-5.07-12.35Z"></path><path d="M278.48,158.99l.64-14.29-3.49-.88-2.59,12.31,.09,.02c1.8,.35,3.45,2.73,5.34,2.85Z"></path><path d="M269.72,142.28s-4.6,6.17-7.01,9.48c.11,.06,.22,.12,.32,.19,1.58,1.06,2.18,4.01,3.96,4.74,.08,.03,.17,.06,.25,.08l6.43-12.17-3.95-2.33Z"></path><path d="M265,137.32l-9.82,6.75s.08,.1,.11,.15c1.07,1.59,.5,4.54,1.85,5.89,.12,.12,.26,.23,.41,.32,3.47-3.91,9.7-10.93,9.92-11.17l-2.47-1.94Z"></path><path d="M262.75,132.5l-11.61,1.87c.19,1.86-1.28,4.21-.59,5.88,.04,.1,.09,.2,.15,.29,4.06-2.02,12.55-6.23,12.9-6.25l-.85-1.79Z"></path><path d="M262.11,126.03l-10.97-3.16c-.01,.09-.02,.19-.04,.28-.37,1.85-2.86,3.53-2.86,5.48,0,.13,.01,.26,.03,.39h13.39l.45-2.98Z"></path><path d="M250.59,116.91c4.1,2.2,12.12,6.64,12.12,6.64l1.97-3.75-9.27-6.97c-.04,.07-.08,.15-.13,.21-1.04,1.56-3.9,2.16-4.7,3.87Z"></path></g><path d="M272.91,156.82s-.73,3.08-1.69,6.85c-.96,3.78-1.77,6.84-1.79,6.83-.03,0,.73-3.08,1.69-6.86,.96-3.78,1.77-6.84,1.79-6.83Z" style="fill:#263238;"></path><circle cx="278.62" cy="128.63" r="18.62" style="fill:#fff;"></circle></g><polygon points="266.02 129.71 269.34 126.53 275.48 132.25 288.06 120.7 291 124.02 274.87 138.51 266.02 129.71" style="fill:#8988E3;"></polygon></g></g></g><g id="freepik--Reward--inject-62"><g><g><circle cx="188.61" cy="67.02" r="32.55" transform="translate(82.81 236.94) rotate(-77.66)" style="fill:#fff;"></circle><path d="M221.15,67.83s-.02-.18-.04-.53c-.02-.37-.04-.88-.07-1.55-.01-.34-.03-.72-.04-1.14-.03-.42-.11-.87-.17-1.36-.13-.98-.25-2.13-.6-3.37-.51-2.53-1.62-5.52-3.39-8.71-1.79-3.18-4.41-6.52-8.01-9.38-3.59-2.84-8.15-5.29-13.46-6.37-1.33-.22-2.68-.53-4.08-.57-.7-.04-1.4-.13-2.1-.13-.71,.02-1.42,.04-2.14,.06-.36,.02-.72,0-1.08,.04l-1.08,.14c-.72,.1-1.46,.17-2.18,.3-1.44,.35-2.92,.61-4.34,1.16-1.46,.43-2.84,1.11-4.26,1.75-.69,.35-1.36,.77-2.04,1.15-.7,.37-1.34,.83-1.98,1.29-1.34,.87-2.51,1.97-3.74,3.02-1.12,1.17-2.29,2.32-3.26,3.66-1.99,2.62-3.74,5.54-4.84,8.78-1.13,3.21-1.79,6.64-1.92,10.14-.04,3.5,.44,6.96,1.41,10.23,.93,3.29,2.54,6.29,4.39,9.01,.9,1.39,2.01,2.59,3.07,3.82,1.17,1.12,2.29,2.27,3.59,3.21,.62,.5,1.24,.99,1.92,1.39,.67,.42,1.31,.86,1.98,1.25,1.38,.71,2.73,1.46,4.17,1.96,1.39,.62,2.86,.95,4.28,1.37,.72,.17,1.45,.27,2.16,.41l1.07,.19c.36,.06,.72,.06,1.08,.1,.72,.06,1.43,.11,2.14,.16,.71,.03,1.41-.02,2.11-.03,1.4,.03,2.76-.21,4.1-.37,5.36-.81,10.03-3.04,13.76-5.69,3.74-2.68,6.52-5.89,8.47-8.97,1.93-3.1,3.19-6.03,3.82-8.53,.41-1.23,.58-2.36,.76-3.34,.09-.49,.19-.94,.24-1.35,.04-.42,.07-.79,.1-1.13,.06-.66,.11-1.17,.14-1.54,.03-.35,.07-.53,.07-.53,0,0,0,.18-.01,.53-.02,.37-.05,.88-.09,1.55l-.07,1.14c-.05,.42-.14,.87-.22,1.36-.17,.98-.33,2.13-.72,3.37-.61,2.52-1.84,5.49-3.77,8.63-1.94,3.13-4.73,6.38-8.5,9.11-3.76,2.71-8.48,4.98-13.91,5.82-1.36,.16-2.73,.41-4.15,.39-.71,0-1.42,.06-2.14,.03l-2.17-.16c-.36-.03-.73-.04-1.09-.1l-1.09-.19c-.73-.14-1.47-.24-2.2-.41-1.44-.43-2.93-.76-4.34-1.38-1.46-.51-2.83-1.26-4.23-1.98-.68-.39-1.34-.84-2.01-1.27-.69-.41-1.32-.91-1.95-1.41-1.31-.95-2.45-2.12-3.64-3.25-1.08-1.25-2.2-2.47-3.12-3.88-1.89-2.76-3.52-5.81-4.47-9.15-.99-3.32-1.48-6.83-1.43-10.39,.14-3.56,.8-7.04,1.95-10.31,1.12-3.29,2.9-6.26,4.92-8.92,.99-1.36,2.18-2.53,3.31-3.72,1.25-1.07,2.45-2.18,3.8-3.06,.65-.47,1.31-.94,2.01-1.31,.7-.39,1.37-.81,2.07-1.16,1.44-.64,2.84-1.33,4.33-1.77,1.44-.56,2.95-.81,4.41-1.16,.74-.13,1.48-.2,2.21-.3l1.1-.14c.36-.04,.73-.03,1.1-.04,.73-.02,1.45-.03,2.17-.05,.72,0,1.43,.1,2.13,.14,1.42,.05,2.78,.36,4.13,.59,5.38,1.11,9.98,3.62,13.6,6.51,3.63,2.92,6.25,6.31,8.03,9.53,1.77,3.23,2.85,6.26,3.34,8.81,.33,1.26,.44,2.41,.55,3.4,.05,.5,.12,.95,.15,1.37,0,.42,.01,.8,.02,1.14,0,.67,.01,1.18,.01,1.55,0,.35-.01,.53-.01,.53Z" style="fill:#263238;"></path></g><g><g><g><path d="M191.69,30.89s-9.17,.53-9.91,2.13c0,0-.12,6.75,6.37,13.55l-1.28,2.77v4.5c3.01-5.85,6.38-14.8,6.38-14.8,0,0,.15-6.29-1.56-8.14Z" style="fill:#8988E3;"></path><g style="opacity:.3;"><path d="M191.36,31.49s-3.2,8.31-1.24,14.3c0,0,4.4-7.35,1.24-14.3Z"></path></g><path d="M205.78,42.08s-4.25-8.14-6.02-8.16c0,0-6.2,2.67-9.73,11.38l-3.05-.03s-1.62-6.99-9.76-10.84c0,0-4.65,8.38-4.81,8.3-.16-.08,3.9,4.04,10.47,4.39,6.57,.34,16.12-.27,16.12-.27,0,0,5.8-2.45,6.78-4.77Z" style="fill:#8988E3;"></path><g style="opacity:.3;"><path d="M185.4,46.41s-6.88-3.97-12.43-3.6c0,0,6.44,5.42,12.43,3.6Z"></path></g><g style="opacity:.3;"><path d="M205.1,42.03s-8.89,.5-13.54,4.75c0,0,8.5,.99,13.54-4.75Z"></path></g></g><polygon points="214.75 46.42 214.44 92.53 161.91 92.6 161.91 46.51 214.75 46.42" style="fill:#455a64;"></polygon></g><path d="M181.79,46.49s-.05,.09-.18,.24c-.15,.17-.33,.38-.56,.64-.52,.58-1.23,1.37-2.09,2.32-1.77,1.95-4.23,4.63-6.96,7.57-2.73,2.95-5.22,5.6-7.03,7.51-.89,.93-1.61,1.69-2.15,2.25-.24,.24-.44,.44-.6,.6-.14,.14-.22,.2-.22,.2,0,0,.05-.09,.18-.24,.15-.17,.33-.38,.56-.64,.52-.58,1.23-1.37,2.08-2.32,1.77-1.95,4.23-4.63,6.96-7.57,2.73-2.95,5.22-5.6,7.03-7.51,.89-.93,1.61-1.69,2.15-2.25,.24-.24,.44-.44,.6-.6,.14-.14,.22-.2,.22-.2Z" style="fill:#fff;"></path><path d="M171.8,46.42s-.11,.18-.35,.46c-.24,.28-.6,.68-1.04,1.18-.89,.99-2.13,2.33-3.51,3.81-1.37,1.49-2.62,2.83-3.53,3.79-.46,.48-.83,.86-1.1,1.13-.26,.26-.42,.4-.43,.38s.11-.18,.35-.46c.24-.29,.59-.69,1.02-1.19,.88-.99,2.1-2.36,3.47-3.85,1.38-1.48,2.65-2.8,3.58-3.75,.46-.47,.84-.85,1.11-1.11,.27-.26,.42-.39,.44-.38Z" style="fill:#fff;"></path><path d="M192.26,46.49s-.09,.13-.29,.35c-.22,.24-.5,.57-.86,.97-.78,.86-1.87,2.06-3.21,3.53-2.75,2.98-6.51,7.06-10.66,11.56-4.18,4.48-7.96,8.54-10.73,11.51-1.37,1.45-2.48,2.62-3.28,3.46-.38,.39-.68,.7-.9,.93-.21,.21-.32,.32-.33,.31,0,0,.09-.13,.28-.35,.22-.24,.5-.57,.86-.97,.78-.86,1.87-2.06,3.21-3.53,2.75-2.98,6.51-7.06,10.67-11.57,4.18-4.48,7.96-8.54,10.73-11.51,1.37-1.45,2.48-2.62,3.28-3.46,.38-.39,.68-.7,.9-.93,.21-.21,.32-.32,.33-.31Z" style="fill:#fff;"></path><path d="M202.78,46.49s-.16,.13-.44,.43c-.29,.32-.69,.75-1.2,1.31-1.05,1.17-2.53,2.84-4.36,4.89-3.67,4.17-8.71,9.9-14.28,16.22-5.57,6.33-10.61,12.07-14.27,16.24-1.82,2.06-3.3,3.73-4.34,4.9-.51,.56-.9,1-1.19,1.32l-.32,.34c-.07,.08-.11,.11-.12,.11,0,0,.03-.05,.09-.13l.29-.36c.28-.33,.66-.78,1.15-1.36,1.02-1.19,2.48-2.88,4.27-4.97,3.62-4.18,8.64-9.95,14.21-16.29,5.57-6.34,10.64-12.06,14.35-16.17,1.85-2.05,3.37-3.7,4.43-4.83,1.06-1.12,1.69-1.72,1.73-1.66Z" style="fill:#fff;"></path><path d="M214.22,46.42s-.16,.13-.45,.44c-.3,.32-.7,.76-1.22,1.32-1.06,1.18-2.57,2.85-4.43,4.91-3.73,4.19-8.85,9.95-14.51,16.31-5.66,6.37-10.78,12.13-14.5,16.32-1.85,2.07-3.36,3.75-4.41,4.93-.51,.56-.92,1.01-1.21,1.33-.13,.14-.24,.25-.32,.34-.07,.08-.11,.11-.12,.11,0,0,.03-.05,.09-.13l.3-.36c.28-.33,.67-.79,1.17-1.37,1.04-1.2,2.52-2.9,4.34-4.99,3.68-4.21,8.78-10,14.44-16.38,5.66-6.37,10.81-12.12,14.58-16.25,1.88-2.06,3.42-3.72,4.5-4.85,1.08-1.13,1.72-1.73,1.76-1.67Z" style="fill:#fff;"></path><path d="M214.75,60.17s-.03,.02-.09,.07c-.05,.05-.13,.12-.23,.23-.2,.21-.49,.52-.86,.92-.74,.81-1.79,1.99-3.09,3.46-2.6,2.97-6.16,7.02-10.09,11.51-3.93,4.49-7.49,8.55-10.08,11.52-1.28,1.45-2.33,2.63-3.07,3.48-.35,.39-.63,.7-.85,.94-.2,.21-.3,.32-.31,.31,0,0,.08-.13,.26-.35,.2-.24,.47-.57,.8-.97,.73-.86,1.75-2.06,3-3.54,2.55-2.98,6.08-7.08,10.02-11.58,3.93-4.5,7.52-8.55,10.16-11.45,2.63-2.9,4.33-4.65,4.43-4.53Z" style="fill:#fff;"></path><path d="M214.57,72.88c.06,.06-3.8,4.52-8.62,9.98-4.83,5.46-8.79,9.84-8.85,9.78-.06-.06,3.8-4.52,8.62-9.98,4.82-5.46,8.79-9.83,8.85-9.78Z" style="fill:#fff;"></path><polyline points="181.09 46.42 185.02 46.41 185.1 92.6 181.17 92.61" style="fill:#8988E3;"></polyline><rect x="162.01" y="67.68" width="52.65" height="3.13" style="fill:#8988E3;"></rect><polygon points="209.78 46.41 209.81 92.53 207.02 92.54 206.94 46.41 209.78 46.41" style="fill:#8988E3;"></polygon><g style="opacity:.3;"><polygon points="200.86 46.44 200.94 92.6 214.44 92.53 214.75 46.42 200.86 46.44"></polygon></g><path d="M200.94,92.1c-.08,0-.15-10.19-.15-22.75s.07-22.75,.15-22.75,.15,10.18,.15,22.75-.07,22.75-.15,22.75Z" style="fill:#455a64;"></path></g></g></g><g id="freepik--Satisfaction--inject-62"><g><g><g><circle cx="93.48" cy="128.41" r="25.03" transform="translate(-11.28 9.03) rotate(-5.21)" style="fill:#fff;"></circle><path d="M118.5,129.03s-.02-.14-.04-.41c-.01-.29-.03-.69-.06-1.19l-.03-.87c-.03-.32-.09-.67-.14-1.05-.1-.76-.2-1.63-.46-2.59-.4-1.94-1.25-4.24-2.62-6.69-1.38-2.44-3.39-5-6.16-7.2-2.76-2.18-6.26-4.06-10.33-4.88-4.05-.8-8.64-.79-13.04,.77-1.12,.33-2.18,.85-3.27,1.34-1.03,.59-2.12,1.13-3.09,1.88-1.02,.67-1.93,1.51-2.87,2.32-.86,.9-1.75,1.78-2.5,2.81-1.52,2.01-2.87,4.25-3.71,6.73-.87,2.47-1.37,5.09-1.47,7.78-.03,2.69,.34,5.34,1.08,7.85,.72,2.52,1.95,4.83,3.37,6.91,.69,1.06,1.54,1.99,2.35,2.93,.9,.86,1.76,1.74,2.75,2.46,.93,.79,1.99,1.39,2.99,2.03,1.06,.54,2.09,1.12,3.2,1.5,4.33,1.77,8.91,2.01,12.99,1.42,4.11-.62,7.7-2.32,10.56-4.36,2.87-2.06,5.01-4.51,6.51-6.88,1.49-2.38,2.45-4.63,2.95-6.55,.31-.94,.45-1.81,.59-2.56,.07-.38,.15-.72,.19-1.04,.03-.32,.05-.61,.08-.87,.05-.5,.09-.89,.12-1.18,.03-.27,.05-.4,.06-.4s0,.14,0,.41c-.02,.29-.04,.69-.06,1.19-.02,.26-.03,.56-.05,.88-.04,.32-.11,.67-.17,1.05-.13,.76-.25,1.64-.55,2.59-.47,1.94-1.41,4.23-2.89,6.65-1.49,2.41-3.64,4.92-6.54,7.02-2.89,2.09-6.53,3.84-10.71,4.49-4.15,.63-8.82,.4-13.24-1.4-1.12-.39-2.18-.97-3.26-1.52-1.02-.65-2.1-1.26-3.05-2.06-1.01-.73-1.89-1.63-2.81-2.5-.83-.96-1.7-1.9-2.41-2.99-1.45-2.13-2.71-4.48-3.45-7.05-.76-2.56-1.14-5.27-1.11-8.01,.1-2.74,.62-5.43,1.51-7.94,.86-2.53,2.23-4.82,3.79-6.87,.76-1.05,1.68-1.95,2.55-2.86,.96-.83,1.88-1.68,2.93-2.36,.99-.76,2.1-1.31,3.15-1.91,1.11-.5,2.19-1.03,3.33-1.36,4.5-1.57,9.17-1.56,13.29-.73,4.14,.86,7.69,2.79,10.47,5.02,2.79,2.25,4.81,4.86,6.18,7.34,1.36,2.49,2.19,4.82,2.56,6.79,.25,.97,.33,1.85,.42,2.62,.04,.38,.09,.73,.11,1.06v.88c.01,.5,.01,.9,.01,1.19,0,.27,0,.41-.02,.41Z" style="fill:#263238;"></path></g><g><path d="M83.9,123.64s4.76-3.6,5.82-4.84c1.06-1.24,1.46-2.24,1.82-3.28,.86-2.43,.22-5.82,.56-7.24,.41-1.67,2.97-1.24,4.02,1.09,1.05,2.32,1.25,3.7,1.08,6.03-.18,2.43-.71,4.93-.71,4.93,0,0,10.96,.67,12.37,1.88,2.75,2.37,.08,5.24,.08,5.24,0,0,1.03,1.04,1.07,2.46,.04,1.43-1.18,3.06-1.18,3.06,0,0,.91,1.53,.24,3.09-.67,1.57-1.19,1.71-1.19,1.71,0,0-.02,2.61-1.32,3.76-1.3,1.15-7.78,1.15-9.45,1.11-1.66-.04-7.82-.51-11.66-2.03-3.84-1.52-6.7-1.12-6.7-1.12l.41-16.45,4.73,.59Z" style="fill:#ffbf9d;"></path><path d="M108.94,127.45s-.09,.03-.26,.06c-.17,.03-.43,.07-.77,.11-.67,.09-1.63,.2-2.83,.28-1.2,.08-2.63,.13-4.23,.08-.79-.04-1.63-.04-2.5-.23-.43-.1-.87-.28-1.23-.59-.37-.31-.61-.76-.7-1.24-.15-.96,.22-1.93,.89-2.55,.69-.63,1.6-.77,2.37-.87,1.58-.21,3.01-.31,4.21-.35,1.2-.04,2.17-.05,2.84-.07,.31,0,.57,0,.77-.01,.18,0,.27,0,.27,.01s-.09,.02-.27,.04c-.18,.02-.44,.04-.77,.06-.71,.04-1.67,.09-2.84,.15-1.2,.06-2.62,.19-4.19,.41-.77,.11-1.62,.25-2.23,.82-.6,.55-.94,1.45-.8,2.31,.07,.43,.29,.81,.61,1.08,.32,.27,.72,.43,1.12,.53,.82,.19,1.66,.19,2.45,.24,1.58,.07,3.01,.04,4.21-.02,1.2-.06,2.16-.14,2.83-.19,.31-.02,.56-.04,.77-.06,.18-.01,.27-.01,.27,0Z" style="fill:#ff9a6c;"></path><path d="M108.66,132.6s-.09,.03-.25,.05c-.17,.03-.41,.06-.73,.1-.63,.07-1.55,.17-2.69,.24-1.14,.07-2.5,.11-4.01,.08-.76-.02-1.55-.04-2.37-.13-.41-.05-.84-.14-1.25-.31-.41-.17-.8-.46-1.02-.88-.24-.41-.27-.9-.19-1.34,.09-.44,.3-.84,.59-1.17,.59-.64,1.35-.99,2.09-1.2,.75-.22,1.48-.22,2.15-.25,.67-.02,1.3-.03,1.87-.03,1.14,0,2.06,0,2.7-.03,.64-.02,.99-.03,.99-.01,0,0-.09,.02-.25,.05-.17,.02-.41,.05-.73,.07-.64,.05-1.56,.09-2.7,.11-.57,.01-1.19,.03-1.86,.06-.67,.03-1.38,.05-2.09,.26-.7,.2-1.43,.56-1.96,1.14-.51,.57-.76,1.49-.36,2.21,.19,.35,.53,.61,.9,.77,.37,.16,.77,.24,1.17,.3,.8,.09,1.6,.12,2.35,.15,1.5,.05,2.86,.02,4-.02,1.14-.04,2.06-.11,2.69-.15,.64-.04,.99-.06,.99-.04Z" style="fill:#ff9a6c;"></path><path d="M108,137.53s-.07,.03-.22,.06c-.14,.03-.36,.06-.64,.1-.55,.08-1.36,.18-2.35,.25-1,.07-2.19,.12-3.52,.07-.66-.04-1.36-.03-2.09-.24-.36-.11-.72-.3-.98-.6-.27-.3-.43-.7-.46-1.1-.08-.8,.22-1.6,.74-2.14,.51-.54,1.15-.92,1.82-1.08,.33-.08,.69-.09,.99-.07,.31,0,.61,.02,.91,.03,.58,.01,1.13,.02,1.63,.03,1,0,1.8-.02,2.36-.04,.56-.02,.87-.04,.87-.02,0,0-.07,.03-.22,.05-.15,.02-.36,.05-.64,.08-.56,.06-1.37,.11-2.37,.13-.5,0-1.05,0-1.64,0-.29,0-.6-.01-.91-.02-.32-.01-.61,0-.93,.07-.62,.15-1.21,.51-1.69,1.02-.47,.49-.74,1.22-.67,1.93,.04,.36,.17,.69,.4,.95,.23,.26,.54,.43,.86,.53,.66,.2,1.36,.2,2.02,.24,1.31,.06,2.5,.03,3.49-.01,.99-.05,1.8-.12,2.35-.17,.56-.05,.86-.08,.87-.06Z" style="fill:#ff9a6c;"></path><path d="M100.85,138.04s-.4,.13-.98,.43c-.56,.3-1.34,.87-1.75,1.75-.2,.45-.27,.91-.13,1.3,.13,.39,.4,.67,.68,.82,.57,.3,1.01,.17,1.01,.22,0,.02-.09,.07-.29,.09-.19,.02-.48,.01-.81-.14-.32-.15-.66-.46-.82-.91-.18-.45-.1-1.01,.12-1.49,.46-.98,1.3-1.54,1.92-1.81,.63-.27,1.06-.29,1.06-.26Z" style="fill:#ff9a6c;"></path><path d="M87.34,132.39c-.02-.05,.88-.24,2.17-.9,1.29-.64,2.96-1.83,4.23-3.63,1.27-1.8,1.84-3.78,2.01-5.2,.18-1.44,.07-2.34,.12-2.34,.02,0,.06,.22,.09,.63,.04,.41,.04,1-.03,1.74-.13,1.45-.68,3.49-1.98,5.34-1.31,1.85-3.04,3.04-4.37,3.65-.67,.31-1.23,.5-1.63,.6-.4,.1-.62,.14-.62,.12Z" style="fill:#ff9a6c;"></path><rect x="76.19" y="120.04" width="6.3" height="20.72" transform="translate(3.28 -1.94) rotate(1.43)" style="fill:#8988E3;"></rect></g></g><path d="M117.46,111.88c-.12-.93-.59-1.79-1.23-2.47-.62-.67-1.43-1.2-2.33-1.37-.95-.19-1.98,.03-2.78,.6-.47,.34-.85,.79-1.11,1.31-.27-.45-.64-.84-1.08-1.13-.81-.54-1.85-.72-2.8-.49-.89,.21-1.68,.77-2.27,1.46-.61,.71-1.04,1.59-1.13,2.52-.11,1.17,.14,2.44,.76,3.43,.66,1.05,1.7,1.88,2.77,2.5,1.8,1.04,4.17,2.34,4.17,2.34,0,0,1.95-1.52,3.72-2.63,1.05-.66,2.06-1.53,2.68-2.61,.58-1.02,.79-2.29,.63-3.45Z" style="fill:#8988E3;"></path></g></g><g id="freepik--Trust--inject-62"><g><g><circle cx="59.41" cy="216.6" r="35.68" transform="translate(-162.48 181.81) rotate(-65.75)" style="fill:#fff;"></circle><path d="M95.08,217.49s-.02-.2-.04-.58c-.02-.4-.04-.96-.07-1.7-.01-.37-.03-.79-.04-1.25-.04-.46-.12-.95-.19-1.49-.14-1.08-.27-2.33-.65-3.7-.56-2.77-1.77-6.05-3.72-9.55-1.96-3.48-4.83-7.15-8.78-10.29-3.94-3.12-8.94-5.81-14.76-6.99-1.46-.24-2.93-.58-4.47-.63-.76-.05-1.53-.14-2.31-.15-.78,.02-1.56,.04-2.35,.06-.39,.02-.79,0-1.19,.05l-1.19,.15c-.79,.11-1.6,.18-2.39,.33-1.57,.39-3.2,.66-4.76,1.27-1.6,.47-3.12,1.22-4.67,1.92-.76,.39-1.49,.84-2.24,1.26-.76,.4-1.47,.91-2.17,1.42-1.46,.95-2.75,2.16-4.1,3.31-1.22,1.29-2.51,2.55-3.57,4.02-2.18,2.87-4.1,6.08-5.31,9.63-1.24,3.53-1.96,7.28-2.11,11.13-.05,3.84,.48,7.64,1.55,11.22,.3,.89,.6,1.77,.89,2.65,.38,.85,.76,1.69,1.14,2.53,.18,.43,.39,.83,.63,1.22l.68,1.19,.68,1.18,.79,1.11c.99,1.52,2.21,2.84,3.37,4.19,1.29,1.22,2.52,2.49,3.93,3.52,.68,.55,1.36,1.09,2.1,1.53,.73,.46,1.44,.95,2.17,1.37,1.52,.78,2.99,1.6,4.57,2.15,1.52,.68,3.14,1.04,4.69,1.51,.79,.18,1.59,.3,2.37,.45l1.18,.21c.39,.06,.79,.07,1.18,.11,.79,.06,1.57,.12,2.34,.18,.78,.03,1.55-.02,2.31-.03,1.54,.03,3.02-.24,4.5-.41,5.87-.89,11-3.33,15.09-6.25,4.1-2.94,7.15-6.46,9.28-9.84,2.12-3.4,3.49-6.62,4.19-9.36,.45-1.35,.64-2.59,.84-3.66,.09-.54,.2-1.03,.26-1.48,.04-.46,.07-.87,.11-1.24,.07-.73,.12-1.29,.15-1.69,.04-.38,.07-.58,.07-.58,0,0,0,.2-.02,.58-.02,.4-.06,.97-.1,1.7-.02,.38-.05,.79-.08,1.25-.05,.46-.15,.95-.24,1.49-.18,1.08-.36,2.33-.79,3.69-.67,2.76-2.02,6.02-4.14,9.46-2.13,3.42-5.18,6.99-9.31,9.98-4.12,2.97-9.3,5.45-15.24,6.37-1.49,.18-3,.45-4.55,.42-.77,0-1.56,.07-2.34,.04-.78-.06-1.58-.12-2.37-.18-.4-.04-.8-.04-1.2-.11l-1.19-.21c-.8-.15-1.61-.26-2.41-.45-1.58-.47-3.21-.83-4.76-1.52-1.6-.55-3.1-1.38-4.64-2.17-.75-.43-1.47-.92-2.21-1.39-.75-.44-1.44-.99-2.13-1.54-1.44-1.04-2.68-2.32-3.99-3.56-1.18-1.36-2.41-2.71-3.42-4.25l-.8-1.13-.7-1.2-.69-1.21c-.24-.4-.46-.81-.64-1.24-.38-.85-.77-1.71-1.16-2.56-.3-.89-.61-1.79-.91-2.69-1.08-3.64-1.62-7.48-1.57-11.38,.15-3.9,.88-7.71,2.14-11.29,1.22-3.6,3.17-6.85,5.39-9.77,1.08-1.49,2.38-2.77,3.63-4.07,1.37-1.17,2.68-2.39,4.16-3.36,.72-.52,1.43-1.03,2.21-1.44,.76-.43,1.5-.89,2.27-1.28,1.58-.71,3.11-1.46,4.74-1.93,1.58-.61,3.23-.89,4.83-1.28,.81-.14,1.62-.22,2.43-.33l1.2-.15c.4-.04,.8-.03,1.2-.05,.8-.02,1.59-.04,2.38-.06,.79,0,1.56,.11,2.34,.15,1.55,.05,3.04,.4,4.52,.65,5.89,1.22,10.94,3.96,14.9,7.13,3.98,3.2,6.85,6.91,8.8,10.43,1.94,3.54,3.13,6.86,3.66,9.65,.36,1.38,.48,2.64,.61,3.72,.06,.54,.14,1.04,.17,1.5,0,.46,.01,.88,.02,1.25,0,.73,.01,1.3,.02,1.7,0,.38-.01,.58-.01,.58Z" style="fill:#263238;"></path></g><g><g><g><path d="M89.54,222.66c-.43,.1-29.64,23.55-29.64,23.55l-19.52-16.72,19.77-26.04,15.62-1.76,3.58-1.52,10.18,22.49Z" style="fill:#ffbf9d;"></path><path d="M31.18,221.2c.33,.34,29.11,25.37,29.11,25.37,0,0,1.81,1.14,4.83,.62,3.03-.52,1.96-3.67,1.96-3.67,0,0,2.33,1.62,4.83-.1,2.5-1.72,1.11-4.32,1.11-4.32,0,0,1.31,1.15,3.46-.14,2.15-1.29,1.1-3.94,1.1-3.94,0,0,2.53,1.45,4.57,.11,2.04-1.34,1.79-4.61,.17-6.7-1.62-2.09-11.67-9.91-11.67-9.91l-10.53-17.14s-.71-1.29-2.06-1.74c-1.35-.46-7.09,1.3-7.09,1.3l-9.86-1.78-9.95,22.04Z" style="fill:#ae7461;"></path><path d="M42.51,236.36c-.97-.11-1.95-.23-2.84-.63s-1.68-1.15-1.88-2.1c-.19-.91,.17-1.85,.68-2.62,.68-1.04,1.67-1.91,2.86-2.29,1.18-.39,2.56-.25,3.56,.5,.99,.75,1.51,2.13,1.12,3.31,1-.48,2.04-.96,3.15-1,1.11-.04,2.32,.47,2.75,1.49,.33,.78,.15,1.69-.2,2.46,.92-.17,1.87-.28,2.8-.12,.92,.17,1.83,.65,2.33,1.44,.5,.79,.51,1.92-.11,2.62,1.22-.29,2.58-.57,3.68,.04,.84,.47,1.37,1.4,1.47,2.36,.1,.96-.18,1.93-.65,2.77-1.14,2.05-3.45,3.38-5.8,3.36-.98-.01-2-.27-2.71-.95-.71-.68-1.01-1.83-.51-2.67-1.34,.02-2.75-.04-3.9-.72s-1.93-2.18-1.38-3.41c-1.13,.07-2.33-.05-3.27-.69-.94-.63-1.54-1.87-1.17-2.94" style="fill:#ffbf9d;"></path><path d="M45.87,232.82c.1,.11-.61,.99-1.59,1.97-.97,.98-1.85,1.7-1.96,1.6-.11-.1,.6-.98,1.59-1.97,.98-.99,1.86-1.71,1.96-1.6Z" style="fill:#ff9a6c;"></path><path d="M46.47,240.55c-.11-.08,.86-1.6,2.48-3.12,1.61-1.53,3.18-2.42,3.25-2.31,.09,.13-1.32,1.19-2.89,2.68-1.57,1.48-2.71,2.83-2.83,2.74Z" style="fill:#ff9a6c;"></path><path d="M56.64,239.69c.11,.09-.77,1.34-2.07,2.7-1.3,1.36-2.51,2.29-2.6,2.19-.1-.11,.94-1.2,2.23-2.55,1.28-1.34,2.33-2.43,2.44-2.34Z" style="fill:#ff9a6c;"></path><path d="M61.23,238.71c.07-.12,1.73,.73,3.46,2.22,1.74,1.48,2.83,2.99,2.72,3.08-.12,.1-1.36-1.23-3.06-2.68-1.69-1.46-3.2-2.49-3.12-2.62Z" style="fill:#6f4439;"></path><path d="M66.26,234.55c.06-.12,1.85,.71,3.85,2.08,2,1.37,3.42,2.74,3.33,2.84-.1,.11-1.65-1.06-3.63-2.41-1.97-1.36-3.63-2.38-3.56-2.51Z" style="fill:#6f4439;"></path><path d="M71.74,228.2c.07-.11,1.91,1.07,3.65,3.1,1.75,2.02,2.64,4.01,2.52,4.07-.14,.08-1.21-1.76-2.92-3.73-1.69-1.98-3.35-3.31-3.25-3.44Z" style="fill:#6f4439;"></path><rect x="30.54" y="195.43" width="6.9" height="28.28" transform="translate(95.09 6.24) rotate(25.94)" style="fill:#e0e0e0;"></rect><rect x="23.46" y="190.3" width="7.95" height="31.81" transform="translate(92.96 8.77) rotate(25.94)" style="fill:#8988E3;"></rect><rect x="90.09" y="191.33" width="7.95" height="31.81" transform="translate(265.63 356.78) rotate(155.49)" style="fill:#455a64;"></rect><path d="M79.36,200.17c-.75,.09-3.58,1.52-3.58,1.52,0,0-16.63-.85-18.91,.06-2.28,.91-6.73,11.11-7,13.04-.26,1.93,2.8,13.18,2.8,13.18,0,0,5.86,1.87,7.59-2.71,1.73-4.58,.11-8.81,.11-8.81l1.66-1.89s4.8,5.49,9.68,3.68c9.31-3.46,14.07-4.27,14.07-4.27l-6.42-13.8Z" style="fill:#ffbf9d;"></path></g><rect x="83.85" y="196.02" width="6.9" height="28.28" transform="translate(253.93 365.15) rotate(155.49)" style="fill:#e0e0e0;"></rect></g><path d="M80.86,215.67s-.19,.23-.62,.55c-.42,.32-1.08,.74-1.93,1.16-1.7,.85-4.32,1.64-7.27,1.46-2.94-.17-5.46-1.26-7.05-2.3-.8-.52-1.4-1.01-1.78-1.38-.39-.37-.57-.6-.55-.62,.06-.07,.91,.75,2.53,1.69,1.6,.94,4.05,1.93,6.89,2.1,2.84,.17,5.38-.53,7.08-1.28,1.71-.74,2.65-1.46,2.71-1.38Z" style="fill:#ff9a6c;"></path></g></g></g><g id="freepik--Coin--inject-62"><g><g><path d="M96.3,308.21c-.37,14.72-12.6,26.35-27.33,25.98-14.72-.37-26.36-12.59-25.99-27.31,.37-14.72,12.6-26.35,27.33-25.98,14.72,.37,26.36,12.59,25.99,27.31Z" style="fill:#fff;"></path><path d="M96.3,308.21s-.02-.15-.04-.43l-.06-1.27c-.01-.28-.02-.59-.04-.93-.03-.34-.09-.71-.15-1.12-.11-.81-.21-1.74-.49-2.76-.42-2.07-1.33-4.52-2.79-7.13-1.47-2.6-3.61-5.33-6.56-7.67-2.94-2.32-6.67-4.32-11.01-5.2-4.31-.85-9.21-.84-13.91,.81-1.19,.35-2.32,.91-3.48,1.43-.57,.29-1.11,.63-1.67,.94-.57,.3-1.09,.68-1.62,1.06-1.09,.71-2.05,1.61-3.06,2.47-.91,.96-1.87,1.9-2.66,3-1.63,2.14-3.06,4.53-3.96,7.18-.93,2.63-1.46,5.43-1.57,8.29-.03,2.87,.36,5.69,1.15,8.36,.76,2.69,2.08,5.15,3.59,7.37,.74,1.13,1.65,2.12,2.51,3.13,.96,.91,1.88,1.86,2.93,2.62,.51,.41,1.01,.81,1.57,1.14,.54,.34,1.07,.71,1.62,1.02,1.13,.58,2.23,1.19,3.41,1.6,4.61,1.88,9.5,2.14,13.85,1.51,4.38-.66,8.21-2.48,11.26-4.65,3.06-2.19,5.34-4.81,6.94-7.33,1.59-2.53,2.61-4.94,3.14-6.98,.33-1,.48-1.93,.63-2.73,.07-.4,.15-.77,.2-1.11l.08-.93c.05-.54,.09-.95,.12-1.26,.03-.28,.05-.43,.06-.43s0,.15,0,.43c-.02,.31-.04,.73-.07,1.27l-.06,.94c-.04,.34-.11,.71-.18,1.12-.13,.81-.27,1.74-.59,2.76-.5,2.07-1.51,4.5-3.09,7.08-1.59,2.56-3.88,5.23-6.97,7.48-3.08,2.22-6.96,4.08-11.41,4.78-4.42,.66-9.39,.42-14.09-1.49-1.2-.41-2.32-1.03-3.47-1.62-.56-.32-1.1-.69-1.65-1.04-.57-.33-1.08-.74-1.6-1.16-1.08-.78-2.01-1.74-2.99-2.67-.88-1.02-1.81-2.03-2.56-3.18-1.55-2.26-2.89-4.77-3.67-7.51-.81-2.72-1.21-5.61-1.18-8.53,.11-2.92,.66-5.78,1.6-8.46,.92-2.7,2.38-5.13,4.04-7.31,.81-1.12,1.79-2.07,2.72-3.05,1.03-.88,2.01-1.79,3.12-2.51,.54-.39,1.07-.77,1.65-1.07,.57-.32,1.13-.66,1.7-.95,1.18-.53,2.33-1.09,3.55-1.45,4.79-1.67,9.77-1.67,14.15-.78,4.41,.91,8.19,2.97,11.15,5.34,2.98,2.39,5.12,5.17,6.59,7.81,1.45,2.65,2.33,5.14,2.73,7.22,.27,1.03,.36,1.97,.45,2.79,.04,.41,.1,.78,.12,1.12,0,.34,0,.66,.01,.94v1.27c0,.29,0,.43,0,.43Z" style="fill:#263238;"></path></g><g><path d="M89.05,305.59c1.55,10.69-5.88,20.62-16.6,22.18-10.72,1.56-20.67-5.85-22.23-16.54-1.55-10.69,5.88-20.62,16.6-22.18,10.72-1.56,20.67,5.85,22.23,16.54Z" style="fill:#8988E3;"></path><g><g><g style="opacity:.3;"><path d="M89.05,305.58c1.55,10.69-5.88,20.62-16.6,22.18-10.72,1.56-20.67-5.85-22.23-16.54-1.55-10.69,5.88-20.62,16.6-22.18,10.72-1.56,20.67,5.85,22.23,16.54Z"></path></g><path d="M89.05,302.57c1.55,10.69-5.88,20.62-16.6,22.18-10.72,1.56-20.67-5.85-22.23-16.54-1.55-10.69,5.88-20.62,16.6-22.18,10.72-1.56,20.67,5.85,22.23,16.54Z" style="fill:#8988E3;"></path><path d="M84.43,303.24c1.18,8.15-4.48,15.71-12.65,16.9-8.17,1.19-15.75-4.46-16.94-12.6-1.18-8.15,4.48-15.71,12.65-16.9,8.17-1.19,15.75,4.46,16.94,12.6Z" style="fill:#8988E3;"></path><g style="opacity:.2;"><path d="M84.43,303.24c1.18,8.15-4.48,15.71-12.65,16.9-8.17,1.19-15.75-4.46-16.94-12.6-1.18-8.15,4.48-15.71,12.65-16.9,8.17-1.19,15.75,4.46,16.94,12.6Z"></path></g><path d="M84.14,300.93c-.29-1.16-.88-2.85-2.14-4.63-.63-.89-1.42-1.8-2.39-2.65-.97-.84-2.12-1.63-3.43-2.25-.66-.31-1.35-.59-2.08-.81-.73-.22-1.49-.41-2.27-.51-.78-.11-1.59-.17-2.41-.16-.82,.02-1.65,.09-2.48,.23-.83,.15-1.63,.36-2.41,.63-.78,.27-1.51,.61-2.21,.98-.7,.37-1.35,.81-1.96,1.26-.61,.46-1.16,.96-1.67,1.48-1.02,1.04-1.82,2.17-2.45,3.29-.62,1.13-1.05,2.25-1.33,3.31-.57,2.11-.54,3.9-.41,5.09,.14,1.2,.36,1.83,.43,1.82,.09-.01,.02-.67,.02-1.84,0-1.16,.11-2.87,.74-4.83,.32-.98,.76-2.02,1.38-3.06,.62-1.03,1.4-2.07,2.37-3.02,.48-.47,1.01-.93,1.58-1.35,.57-.42,1.18-.81,1.83-1.15,.65-.34,1.33-.65,2.06-.89,.72-.24,1.47-.44,2.23-.58,.77-.13,1.54-.2,2.3-.22,.76-.02,1.51,.04,2.24,.13,.73,.09,1.44,.25,2.12,.45,.68,.19,1.33,.44,1.95,.72,1.24,.55,2.33,1.26,3.27,2.02,.94,.77,1.71,1.59,2.35,2.4,1.27,1.63,1.96,3.19,2.37,4.28,.4,1.1,.56,1.74,.65,1.72,.07-.01,.06-.68-.22-1.85Z" style="fill:#8988E3;"></path></g><path d="M72.6,313.97l.41,2.57-2.3,.37-.4-2.5c-2.29,.23-4.59-.14-6.01-.92l.81-3c1.28,.67,3.04,1.02,4.72,.92l-.61-3.83c-2.65-.21-5.63-.6-6.16-3.89-.39-2.43,1.04-4.8,4.6-5.8l-.41-2.55,2.3-.37,.4,2.5c1.74-.14,3.49,.05,4.88,.65l-.7,3.01c-1.28-.48-2.53-.68-3.7-.63l.63,3.9c2.64,.19,5.58,.59,6.1,3.82,.38,2.39-1.03,4.73-4.57,5.74Zm-3.92-9.77l-.52-3.26c-1.17,.47-1.55,1.21-1.43,1.97,.13,.8,.89,1.13,1.95,1.29Zm4.83,4.9c-.13-.8-.86-1.13-1.91-1.32l.51,3.17c1.11-.44,1.52-1.11,1.4-1.85Z" style="fill:#8988E3;"></path></g><path d="M84.14,300.93c-.29-1.16-.88-2.85-2.14-4.63-.63-.89-1.42-1.8-2.39-2.65-.97-.84-2.12-1.63-3.43-2.25-.66-.31-1.35-.59-2.08-.81-.73-.22-1.49-.41-2.27-.51-.78-.11-1.59-.17-2.41-.16-.82,.02-1.65,.09-2.48,.23-.83,.15-1.63,.36-2.41,.63-.78,.27-1.51,.61-2.21,.98-.7,.37-1.35,.81-1.96,1.26-.61,.46-1.16,.96-1.67,1.48-1.02,1.04-1.82,2.17-2.45,3.29-.62,1.13-1.05,2.25-1.33,3.31-.57,2.11-.54,3.9-.41,5.09,.14,1.2,.36,1.83,.43,1.82,.09-.01,.02-.67,.02-1.84,0-1.16,.11-2.87,.74-4.83,.32-.98,.76-2.02,1.38-3.06,.62-1.03,1.4-2.07,2.37-3.02,.48-.47,1.01-.93,1.58-1.35,.57-.42,1.18-.81,1.83-1.15,.65-.34,1.33-.65,2.06-.89,.72-.24,1.47-.44,2.23-.58,.77-.13,1.54-.2,2.3-.22,.76-.02,1.51,.04,2.24,.13,.73,.09,1.44,.25,2.12,.45,.68,.19,1.33,.44,1.95,.72,1.24,.55,2.33,1.26,3.27,2.02,.94,.77,1.71,1.59,2.35,2.4,1.27,1.63,1.96,3.19,2.37,4.28,.4,1.1,.56,1.74,.65,1.72,.07-.01,.06-.68-.22-1.85Z" style="opacity:.3;"></path></g></g></g><g id="freepik--Gear--inject-62"><g><g><path d="M117.93,392.91c-.28,11.03-9.44,19.76-20.48,19.48-11.03-.28-19.76-9.44-19.48-20.48,.28-11.03,9.44-19.76,20.48-19.48,11.03,.28,19.76,9.44,19.48,20.48Z" style="fill:#fff;"></path><path d="M117.93,392.91s-.02-.11-.03-.32c-.01-.24-.03-.55-.05-.95,0-.42-.04-.93-.14-1.53-.08-.6-.16-1.3-.37-2.07-.32-1.55-1-3.38-2.09-5.33-1.1-1.94-2.71-3.98-4.91-5.73-2.2-1.73-4.99-3.23-8.24-3.89-3.22-.63-6.88-.62-10.39,.61-1.77,.56-3.48,1.44-5.06,2.56-.82,.53-1.53,1.2-2.28,1.85-.68,.72-1.4,1.42-1.99,2.24-2.51,3.17-3.98,7.28-4.13,11.56-.03,2.14,.27,4.25,.86,6.25,.57,2.01,1.55,3.85,2.68,5.51,.55,.85,1.23,1.58,1.87,2.34,.72,.68,1.4,1.39,2.19,1.96,1.52,1.2,3.19,2.16,4.92,2.81,3.45,1.41,7.1,1.61,10.35,1.13,3.27-.49,6.14-1.85,8.42-3.47,2.29-1.64,4-3.59,5.19-5.48,1.19-1.89,1.96-3.69,2.36-5.22,.25-.75,.36-1.45,.48-2.04,.13-.6,.19-1.11,.22-1.52,.04-.39,.07-.7,.1-.94,.02-.21,.04-.32,.05-.32s0,.11,0,.32l-.05,.95c-.01,.42-.05,.94-.17,1.54-.1,.61-.2,1.31-.43,2.07-.37,1.55-1.12,3.38-2.31,5.32-1.19,1.93-2.9,3.94-5.22,5.62-2.31,1.67-5.22,3.08-8.57,3.6-3.32,.5-7.06,.32-10.59-1.11-1.78-.66-3.49-1.64-5.06-2.87-.81-.58-1.51-1.31-2.25-2-.66-.77-1.36-1.52-1.93-2.39-1.17-1.7-2.17-3.59-2.76-5.65-.61-2.05-.91-4.22-.89-6.41,.08-2.19,.49-4.34,1.21-6.36,.69-2.03,1.79-3.86,3.04-5.5,.61-.84,1.34-1.56,2.04-2.29,.77-.66,1.51-1.35,2.35-1.89,1.62-1.15,3.38-2.04,5.19-2.61,3.6-1.25,7.34-1.25,10.64-.58,3.31,.69,6.15,2.24,8.38,4.02,2.23,1.8,3.84,3.89,4.94,5.88,1.08,1.99,1.75,3.86,2.04,5.43,.2,.77,.26,1.48,.33,2.09,.09,.61,.1,1.13,.09,1.55,0,.4,0,.71,0,.95,0,.21,0,.32-.02,.32Z" style="fill:#263238;"></path></g><path d="M91.53,381.77c.95-.58,1.97-1.01,3.02-1.31l.62-2.99,5.05-.09,.73,2.96c1.06,.26,2.09,.66,3.06,1.2l2.55-1.67,3.63,3.51-1.58,2.61c.58,.95,1.01,1.97,1.31,3.02l2.99,.62,.09,5.05-2.96,.73c-.26,1.06-.66,2.09-1.2,3.06l1.67,2.55-3.51,3.63-2.61-1.58c-.95,.58-1.97,1.01-3.02,1.31l-.62,2.99-5.05,.09-.73-2.96c-1.06-.26-2.09-.66-3.06-1.2l-2.55,1.67-3.63-3.51,1.58-2.61c-.58-.95-1.01-1.97-1.31-3.02l-2.99-.62-.09-5.05,2.96-.73c.26-1.06,.66-2.09,1.2-3.06l-1.67-2.55,3.51-3.63,2.61,1.58h0Zm2.69,6.72c-2.08,2.15-2.02,5.58,.13,7.66,2.15,2.08,5.58,2.02,7.66-.13,2.08-2.15,2.02-5.58-.13-7.66-2.15-2.08-5.58-2.02-7.66,.13Z" style="fill:#455a64;"></path></g></g></svg>
